<svg width="750" height="500" viewBox="0 0 750 500" fill="none" xmlns="http://www.w3.org/2000/svg">
<g clip-path="url(#clip0_225_2058)">
<path d="M750 0H0V500H750V0Z" fill="white"/>
<path d="M635.128 286.812C622.352 280.292 606.172 279.852 596.08 269.658C580.838 254.263 589.187 228.421 584.943 207.177C579.164 178.252 548.725 159.656 519.316 157.389C489.907 155.122 461.156 165.361 433.257 174.938C405.359 184.515 376.01 193.696 346.848 189.265C314.499 184.35 287.265 163.531 259.207 146.697C231.149 129.863 197.111 116.282 166.32 127.353C146.071 134.633 130.068 152.703 125.288 173.683C119.953 197.098 127.845 222.494 120.025 245.2C113.081 265.36 95.1453 279.462 83.4603 297.298C59.6423 333.655 66.7113 386.604 97.9473 416.394H644.473C653.437 395.989 662.232 365.052 663.274 343.623C664.359 321.302 655.034 296.971 635.128 286.812Z" fill="#CEE8F0"/>
<path d="M651.577 281.387C654.941 282.239 658.498 282.686 661.873 281.88C665.248 281.074 668.421 278.837 669.652 275.593C671.096 271.789 669.573 267.318 666.717 264.42C663.861 261.522 659.903 259.971 655.94 259.047C648.458 257.303 640.522 257.546 633.161 259.745C630.808 260.448 626.267 262.01 625.478 264.746C624.426 268.392 628.637 270.016 631.27 271.72C637.582 275.807 644.236 279.527 651.577 281.387Z" fill="#CEE8F0"/>
<path d="M107.693 117.611H186.219C187.861 116.734 189.115 115.093 189.335 113.234C189.651 110.567 187.821 107.807 185.243 107.059C180.066 105.557 173.938 111.388 169.648 108.123C166.393 105.646 167.294 99.6799 163.706 97.7159C159.335 95.3229 154.617 101.717 149.676 101.071C146.876 100.704 144.882 98.1359 143.771 95.5399C142.66 92.9429 142.082 90.0849 140.493 87.7509C136.481 81.8569 126.087 82.3469 122.647 88.5909C121.329 90.9839 120.994 93.7869 119.996 96.3299C118.998 98.8729 116.922 101.366 114.19 101.423C111.177 101.486 108.84 98.6169 105.862 98.1559C100.958 97.3979 97.5401 103.886 99.1751 108.571C100.569 112.565 104.068 115.291 107.693 117.611Z" fill="#CEE8F0"/>
<path d="M608.793 319.443H677.949C679.395 318.671 680.499 317.225 680.693 315.589C680.971 313.24 679.36 310.809 677.089 310.151C672.53 308.829 667.133 313.964 663.355 311.089C660.489 308.908 661.282 303.654 658.122 301.924C654.273 299.816 650.118 305.448 645.766 304.878C643.3 304.555 641.544 302.294 640.566 300.007C639.588 297.72 639.079 295.203 637.679 293.147C634.146 287.957 624.992 288.388 621.962 293.887C620.801 295.994 620.506 298.463 619.627 300.703C618.748 302.943 616.92 305.138 614.514 305.189C611.86 305.245 609.803 302.718 607.179 302.312C602.86 301.644 599.85 307.358 601.29 311.484C602.519 315 605.6 317.4 608.793 319.443Z" fill="white"/>
<path d="M421.926 93.8916H324.176V149.142H421.926V93.8916Z" fill="#CEE8F0"/>
<path d="M334.051 118.599L340.203 105.539C340.611 104.672 341.828 104.626 342.3 105.46L350.801 120.474L363.365 110.215C363.924 109.759 364.758 109.905 365.127 110.525L372.176 122.349L384.413 107.199C384.876 106.626 385.744 106.611 386.226 107.168L397.301 119.974L409.56 104.566C410.146 103.83 411.316 104.04 411.608 104.935L414.927 115.099V136.349H334.677L334.051 118.599Z" fill="#629EEB"/>
<path d="M330.383 127.35V108.6L341.425 122.6L352.275 108.924C352.811 108.248 353.868 108.356 354.256 109.127L363.3 127.1L371.795 114.581C372.271 113.88 373.309 113.893 373.767 114.606L383.55 129.85L398.849 108.872C399.384 108.139 400.512 108.257 400.882 109.086L410.05 129.6L415.55 101.35L415.717 141.683L331.8 141.1L330.383 127.35Z" fill="#F16B5F"/>
<path d="M330.383 141.684H415.716V107.35L399.883 123.183L392.104 116.625C391.682 116.269 391.07 116.253 390.63 116.586L371.549 131.017L353.742 115.101C353.202 114.619 352.36 114.731 351.965 115.337L340.883 132.351L330.383 127.351V141.684Z" fill="#FBAC4D"/>
<path d="M479.883 109.184H408.383V180.684H479.883V109.184Z" fill="#0E293A"/>
<path d="M416.84 116.559H412.84V174.309H416.84V116.559Z" fill="white"/>
<path d="M424.84 139.809H420.84V174.309H424.84V139.809Z" fill="white"/>
<path d="M432.84 130.975H428.84V174.308H432.84V130.975Z" fill="white"/>
<path d="M440.84 123.309H436.84V174.309H440.84V123.309Z" fill="white"/>
<path d="M448.84 151.475H444.84V174.308H448.84V151.475Z" fill="white"/>
<path d="M475.426 115.559H454.426V118.059H475.426V115.559Z" fill="white"/>
<path d="M475.426 119.892H459.426V122.392H475.426V119.892Z" fill="white"/>
<path d="M475.427 124.225H466.75V126.725H475.427V124.225Z" fill="white"/>
<path d="M449.82 168.328H372.32V220.828H449.82V168.328Z" fill="#629EEB"/>
<path d="M396.985 203.495H382.152V212.162H396.985V203.495Z" fill="white"/>
<path d="M416.817 196.162H401.984V212.162H416.817V196.162Z" fill="white"/>
<path d="M436.653 188.828H421.82V212.161H436.653V188.828Z" fill="white"/>
<path d="M379.652 198.495C379.466 198.495 379.288 198.391 379.202 198.212C379.082 197.963 379.186 197.665 379.434 197.545L398.767 188.211C398.961 188.118 399.195 188.159 399.345 188.315C399.495 188.471 399.528 188.706 399.426 188.897L397.453 192.595L426.11 179.54C426.319 179.445 426.569 179.505 426.713 179.689C426.855 179.872 426.853 180.129 426.707 180.31L423.744 183.984L439.635 177.602C439.893 177.501 440.183 177.623 440.285 177.879C440.388 178.135 440.264 178.426 440.008 178.529L422.338 185.626C422.127 185.711 421.885 185.642 421.749 185.459C421.614 185.276 421.619 185.025 421.762 184.848L424.602 181.327L396.525 194.117C396.331 194.204 396.101 194.16 395.954 194.004C395.807 193.848 395.776 193.615 395.877 193.426L397.823 189.778L379.87 198.445C379.8 198.479 379.726 198.495 379.652 198.495Z" fill="#FBAC4D"/>
<path d="M440.026 180.133L442.487 176.995L438.539 176.432L440.026 180.133Z" fill="#FBAC4D"/>
<path d="M529.087 112.366V106.246H525.257C525.047 105.526 524.757 104.836 524.397 104.186V104.176L527.107 101.466L522.787 97.146L520.077 99.856C519.417 99.496 518.727 99.206 518.007 98.996V95.166H511.887V98.996C511.167 99.206 510.477 99.496 509.817 99.856L507.107 97.146L502.777 101.466L505.497 104.186C505.137 104.836 504.847 105.526 504.637 106.246H500.797V112.366H504.637C504.847 113.086 505.137 113.776 505.497 114.426V114.436L502.777 117.146L507.107 121.476L509.827 118.756C510.477 119.116 511.167 119.406 511.887 119.616V123.456H518.007V119.616C518.727 119.406 519.417 119.116 520.067 118.756L522.787 121.476L527.107 117.146L524.397 114.436C524.757 113.776 525.047 113.086 525.257 112.366H529.087ZM514.947 114.056C512.317 114.056 510.197 111.936 510.197 109.306C510.197 106.686 512.317 104.556 514.947 104.556C517.567 104.556 519.697 106.686 519.697 109.306C519.697 111.936 517.567 114.056 514.947 114.056Z" fill="#36C2D9"/>
<path d="M648.427 233.676V227.556H644.597C644.387 226.836 644.097 226.146 643.737 225.496V225.486L646.447 222.776L642.127 218.456L639.417 221.166C638.757 220.806 638.067 220.516 637.347 220.306V216.476H631.227V220.306C630.507 220.516 629.817 220.806 629.157 221.166L626.447 218.456L622.117 222.776L624.837 225.496C624.477 226.146 624.187 226.836 623.977 227.556H620.137V233.676H623.977C624.187 234.396 624.477 235.086 624.837 235.736V235.746L622.117 238.456L626.447 242.786L629.167 240.066C629.817 240.426 630.507 240.716 631.227 240.926V244.766H637.347V240.926C638.067 240.716 638.757 240.426 639.407 240.066L642.127 242.786L646.447 238.456L643.737 235.746C644.097 235.086 644.387 234.396 644.597 233.676H648.427ZM634.287 235.366C631.657 235.366 629.537 233.246 629.537 230.616C629.537 227.996 631.657 225.866 634.287 225.866C636.907 225.866 639.037 227.996 639.037 230.616C639.037 233.246 636.907 235.366 634.287 235.366Z" fill="#36C2D9"/>
<path d="M169.747 230.339V224.219H165.917C165.707 223.499 165.417 222.809 165.057 222.159V222.149L167.767 219.439L163.447 215.119L160.737 217.829C160.077 217.469 159.387 217.179 158.667 216.969V213.139H152.547V216.969C151.827 217.179 151.137 217.469 150.477 217.829L147.767 215.119L143.437 219.439L146.157 222.159C145.797 222.809 145.507 223.499 145.297 224.219H141.457V230.339H145.297C145.507 231.059 145.797 231.749 146.157 232.399V232.409L143.437 235.119L147.767 239.449L150.487 236.729C151.137 237.089 151.827 237.379 152.547 237.589V241.429H158.667V237.589C159.387 237.379 160.077 237.089 160.727 236.729L163.447 239.449L167.767 235.119L165.057 232.409C165.417 231.749 165.707 231.059 165.917 230.339H169.747ZM155.607 232.029C152.977 232.029 150.857 229.909 150.857 227.279C150.857 224.659 152.977 222.529 155.607 222.529C158.227 222.529 160.357 224.659 160.357 227.279C160.357 229.909 158.227 232.029 155.607 232.029Z" fill="#36C2D9"/>
<path d="M141.609 212.608V209.289H139.532C139.418 208.898 139.261 208.524 139.066 208.172V208.167L140.536 206.697L138.193 204.354L136.723 205.824C136.365 205.629 135.991 205.472 135.6 205.358V203.281H132.281V205.358C131.89 205.472 131.516 205.629 131.158 205.824L129.688 204.354L127.34 206.697L128.815 208.172C128.62 208.524 128.463 208.899 128.349 209.289H126.266V212.608H128.349C128.463 212.999 128.62 213.373 128.815 213.725V213.73L127.34 215.2L129.688 217.548L131.163 216.073C131.516 216.268 131.89 216.426 132.28 216.539V218.622H135.599V216.539C135.989 216.425 136.364 216.268 136.716 216.073L138.191 217.548L140.534 215.2L139.064 213.73C139.259 213.372 139.417 212.998 139.53 212.607H141.609V212.608ZM133.94 213.525C132.514 213.525 131.364 212.375 131.364 210.949C131.364 209.528 132.514 208.373 133.94 208.373C135.361 208.373 136.516 209.528 136.516 210.949C136.517 212.375 135.361 213.525 133.94 213.525Z" fill="#36C2D9"/>
<path d="M547.427 99.742V95.207H544.589C544.433 94.673 544.219 94.162 543.952 93.681V93.674L545.96 91.666L542.759 88.465L540.751 90.473C540.262 90.206 539.751 89.991 539.217 89.836V86.998H534.682V89.836C534.148 89.992 533.637 90.206 533.148 90.473L531.14 88.465L527.931 91.666L529.947 93.682C529.68 94.164 529.465 94.675 529.31 95.208H526.465V99.743H529.31C529.466 100.277 529.681 100.788 529.947 101.269V101.276L527.931 103.284L531.14 106.493L533.156 104.477C533.638 104.744 534.149 104.959 534.682 105.114V107.959H539.217V105.114C539.751 104.958 540.262 104.744 540.743 104.477L542.759 106.493L545.96 103.284L543.952 101.276C544.219 100.787 544.434 100.276 544.589 99.742H547.427ZM536.949 100.994C535 100.994 533.429 99.423 533.429 97.474C533.429 95.533 535 93.954 536.949 93.954C538.89 93.954 540.469 95.532 540.469 97.474C540.469 99.423 538.89 100.994 536.949 100.994Z" fill="#36C2D9"/>
<path d="M440.744 360.168C439.769 360.503 463.52 288.797 479.913 290.677C496.305 292.556 480.823 346.393 440.744 360.168Z" fill="#21B789"/>
<path d="M441.679 360.779C441.679 360.779 407.804 305.059 393.497 306.942C379.19 308.824 382.712 343.954 441.679 360.779Z" fill="#3BDBAA"/>
<path d="M441.679 360.779C441.679 360.779 444.012 261.398 404.965 263.968C365.919 266.538 428.682 351.236 441.679 360.779Z" fill="#21B789"/>
<path d="M440.443 362.214C440.443 362.214 491.511 277.117 463.131 265.8C434.751 254.482 436.169 349.458 440.443 362.214Z" fill="#3BDBAA"/>
<path d="M439.866 355.397C431.73 355.276 423.051 355.411 416.488 356.184C415.572 356.292 414.9 357.088 414.952 358.009C415.445 366.629 418.168 407.173 426.199 416.394H428.199H451.532H453.532C461.563 407.173 464.286 366.629 464.779 358.009C464.832 357.088 464.16 356.292 463.243 356.184C456.681 355.412 448.002 355.276 439.866 355.397Z" fill="#629EEB"/>
<path d="M439.238 353.103L401.988 270.353" stroke="#0E293A" stroke-width="0.5" stroke-miterlimit="10" stroke-linecap="round" stroke-linejoin="round"/>
<path d="M462.738 268.103L442.738 349.603" stroke="#0E293A" stroke-width="0.5" stroke-miterlimit="10" stroke-linecap="round" stroke-linejoin="round"/>
<path d="M392.738 315.603L433.738 353.603" stroke="#0E293A" stroke-width="0.5" stroke-miterlimit="10" stroke-linecap="round" stroke-linejoin="round"/>
<path d="M449.738 350.103L469.988 322.103" stroke="#0E293A" stroke-width="0.5" stroke-miterlimit="10" stroke-linecap="round" stroke-linejoin="round"/>
<path d="M417.906 359.603H461.739" stroke="#0E293A" stroke-width="0.5" stroke-miterlimit="10" stroke-linecap="round" stroke-linejoin="round"/>
<path d="M312.375 113.164C312.375 109.801 309.648 107.074 306.285 107.074C309.648 107.074 312.375 104.347 312.375 100.984C312.375 104.347 315.102 107.074 318.465 107.074C315.102 107.075 312.375 109.801 312.375 113.164Z" fill="#36C2D9"/>
<path d="M306.377 103.093C306.377 101.185 304.83 99.6376 302.922 99.6376C304.83 99.6376 306.377 98.0906 306.377 96.1826C306.377 98.0906 307.924 99.6376 309.832 99.6376C307.924 99.6376 306.377 101.185 306.377 103.093Z" fill="#36C2D9"/>
<path d="M607.293 172.581C607.293 169.218 604.566 166.491 601.203 166.491C604.566 166.491 607.293 163.764 607.293 160.401C607.293 163.764 610.02 166.491 613.383 166.491C610.02 166.491 607.293 169.218 607.293 172.581Z" fill="#36C2D9"/>
<path d="M615.668 175.75C615.668 173.755 614.05 172.137 612.055 172.137C614.05 172.137 615.668 170.519 615.668 168.524C615.668 170.519 617.286 172.137 619.281 172.137C617.286 172.137 615.668 173.755 615.668 175.75Z" fill="#36C2D9"/>
<path d="M190.711 186.998C190.711 183.635 187.984 180.908 184.621 180.908C187.984 180.908 190.711 178.181 190.711 174.818C190.711 178.181 193.437 180.908 196.801 180.908C193.437 180.908 190.711 183.634 190.711 186.998Z" fill="white"/>
<path d="M185.71 174.572C185.71 171.997 183.622 169.909 181.047 169.909C183.622 169.909 185.71 167.821 185.71 165.246C185.71 167.821 187.798 169.909 190.373 169.909C187.797 169.909 185.71 171.997 185.71 174.572Z" fill="white"/>
<path d="M474.375 260.414C474.375 257.051 471.649 254.324 468.285 254.324C471.648 254.324 474.375 251.597 474.375 248.234C474.375 251.597 477.102 254.324 480.465 254.324C477.102 254.325 474.375 257.051 474.375 260.414Z" fill="white"/>
<path d="M468.624 247.404C468.624 245.105 466.76 243.241 464.461 243.241C466.76 243.241 468.624 241.377 468.624 239.078C468.624 241.377 470.488 243.241 472.787 243.241C470.488 243.241 468.624 245.105 468.624 247.404Z" fill="white"/>
<path d="M284.867 193.542C288.009 187.016 286.705 172.806 286.535 171.051C286.526 170.989 286.523 170.935 286.514 170.874L303.784 182.307C303.445 182.789 303.227 183.462 303.096 184.249L303.095 184.256C302.817 185.85 302.897 187.909 303.084 189.793C303.363 192.549 303.88 194.923 303.88 194.923L294.734 196.022L284.867 193.542Z" fill="#AD5735"/>
<path d="M303.086 189.794C293.207 190.319 289.099 178.268 288.949 177.818C290.548 180.818 293.062 182.46 295.572 183.338C298.661 184.427 301.738 184.36 303.035 184.265C303.056 184.26 303.076 184.261 303.096 184.256C302.818 185.851 302.898 187.91 303.086 189.794Z" fill="#0E293A"/>
<path d="M268.066 257.523C268.066 257.523 298.733 265.523 314.566 259.856L312.908 248.355C312.248 243.779 312.567 239.118 313.836 234.673C316.861 224.08 321.625 203.186 320.899 200.522C319.899 196.855 314.232 194.689 304.066 194.022C304.066 194.022 294.066 196.522 285.233 192.189C285.233 192.189 269.733 189.856 267.566 197.356C265.909 203.092 269.013 225.555 270.251 235.961C270.671 239.494 270.574 243.065 269.966 246.571L268.066 257.523Z" fill="#629EEB"/>
<path d="M283.984 192.688C283.984 192.688 292.359 203.063 305.609 194.563" stroke="#0E293A" stroke-width="0.5" stroke-miterlimit="10" stroke-linecap="round" stroke-linejoin="round"/>
<path d="M293.27 219.609C295.489 224.026 298.664 227.959 302.513 231.06" stroke="#0E293A" stroke-width="0.5" stroke-miterlimit="10" stroke-linecap="round" stroke-linejoin="round"/>
<path d="M291.152 221.189C291.19 226.653 293.829 232.042 298.123 235.421" stroke="#0E293A" stroke-width="0.5" stroke-miterlimit="10" stroke-linecap="round" stroke-linejoin="round"/>
<path d="M269.097 229.461C266.135 227.388 263.203 225.272 260.279 223.141C258.581 221.904 256.586 220.564 254.655 219.079C251.233 224.853 247.369 231.251 243.479 237.623C225.062 241.235 209.27 244.135 208.383 244.297C208.383 244.297 208.383 244.297 208.377 244.296C208.353 244.307 208.341 244.306 208.341 244.306V244.307C205.155 242.17 202.075 241.456 200.501 241.126C199.28 240.869 198.781 241.468 198.581 241.921C198.479 242.152 198.602 242.393 198.841 242.46C199.982 242.779 202.048 243.764 202.097 244.63C202.152 245.607 192.893 245.154 192.586 246.464C192.463 246.99 199.043 247.491 199.043 247.491C199.043 247.491 191.872 248.284 192.295 249.116C192.718 249.948 199.111 250.065 199.111 250.065C199.111 250.065 192.039 251.711 192.821 252.368C193.603 253.024 199.238 252.528 199.238 252.528C196.722 253.406 195.814 254.12 195.49 254.548C195.336 254.751 195.458 255.008 195.711 255.01C198.805 255.042 205.316 252.144 208.018 250.875C215.838 253.522 224.175 254.867 232.599 255.315C237.87 255.603 243.169 255.538 248.389 255.224C251.646 255.028 254.647 253.385 256.659 250.664C261.207 244.516 265.212 238.312 268.655 232.546C269.124 231.76 269.58 230.987 270.028 230.22C269.717 229.966 269.403 229.719 269.097 229.461Z" fill="#AD5735"/>
<path d="M250.984 224.064C250.984 224.064 264.734 237.064 266.109 236.814C267.484 236.564 283.859 205.939 283.859 199.689C283.859 193.439 285.234 192.189 285.234 192.189C285.234 192.189 273.234 188.189 267.609 195.439C261.984 202.689 250.984 224.064 250.984 224.064Z" fill="#629EEB"/>
<path d="M266.054 236.808C265.564 237.588 265.064 238.388 264.544 239.178C263.034 239.068 252.414 229.188 249.984 226.908C250.474 226.098 250.954 225.288 251.434 224.488C253.764 226.678 264.554 236.728 266.054 236.808Z" fill="#0E293A"/>
<path d="M266.109 236.813L274.734 223.313" stroke="#0E293A" stroke-width="0.5" stroke-miterlimit="10" stroke-linecap="round" stroke-linejoin="round"/>
<path d="M352.139 179.93C352.097 178.962 350.665 178.288 350.665 178.288C350.286 176.52 348.265 176.772 348.265 176.772C347.465 174.962 345.655 176.267 345.655 176.267C345.655 173.951 344.813 171.383 344.055 171.51C343.297 171.636 343.381 180.056 342.539 180.183C341.697 180.309 340.181 176.057 339.045 177.11C338.077 178.007 340.921 183.96 341.786 185.708L331.48 215.94L327.605 209.19L320.105 232.065C320.105 232.065 326.855 243.315 335.355 242.19C343.812 241.071 351.731 204.817 348.628 185.736C349.772 184.379 352.174 180.725 352.139 179.93Z" fill="#AD5735"/>
<path d="M331.221 215.479C330.281 220.969 324.701 231.259 322.441 235.269C321.991 234.729 321.601 234.219 321.281 233.779C323.451 229.969 329.251 219.349 330.211 213.729L331.221 215.479Z" fill="#0E293A"/>
<path d="M313.107 225.064L320.482 235.189C320.482 235.189 331.623 216.261 330.232 211.314C329.107 207.314 319.357 194.939 311.732 195.064C304.107 195.189 306.482 219.939 313.107 225.064Z" fill="#629EEB"/>
<path d="M315.48 228.439C315.48 228.439 317.48 222.814 316.98 218.814C316.48 214.814 315.48 205.564 315.48 205.564" stroke="#0E293A" stroke-width="0.5" stroke-miterlimit="10" stroke-linecap="round" stroke-linejoin="round"/>
<path d="M350.986 413.053C343.105 414.073 331.494 406.192 331.494 406.192H331.492C331.927 402.95 332.93 395.401 334.194 385.46C334.306 384.581 334.42 383.678 334.536 382.763C328.89 382.487 323.247 382.153 317.606 381.771L317.897 406.658C317.051 409.572 317.171 412.753 317.372 414.139C317.541 415.303 318.538 416.161 319.714 416.161H351.049C351.407 416.161 351.758 416.009 351.98 415.728C352.743 414.763 352.49 413.988 352.14 413.507C351.879 413.147 351.426 412.996 350.986 413.053Z" fill="#AD5735"/>
<path d="M317.484 406.954C318.495 405.801 319.456 405.317 320.843 405.972C321.796 406.421 322.48 407.275 323.246 407.998C324.012 408.721 325.005 409.362 326.047 409.207C327.424 409.002 328.2 407.573 329.209 406.614C330.477 405.408 332.358 404.884 334.067 405.26C336.753 409.01 341.431 411.522 346.04 411.728C347.252 411.782 348.47 411.692 349.676 411.813C350.883 411.933 352.114 412.289 353.01 413.106C353.669 413.706 354.101 414.596 354.1 415.471C354.1 415.986 353.662 416.397 353.148 416.397H318.156C317.726 416.397 317.35 416.113 317.241 415.696C316.764 413.872 315.709 408.979 317.484 406.954Z" fill="#5E2039"/>
<path d="M282.045 378.711C277.334 378.224 272.625 377.716 267.92 377.17C266.769 377.044 265.62 376.905 264.47 376.775C265.157 390.92 265.787 402.057 266.026 406.19C266.026 406.19 253.815 414.071 246.012 413.051C245.576 412.994 245.111 413.145 244.823 413.505C244.437 413.986 244.124 414.761 244.814 415.726C245.015 416.007 245.354 416.159 245.713 416.159H277.048C278.224 416.159 279.287 415.301 279.544 414.137C279.85 412.752 280.212 409.576 279.59 406.664L282.045 378.711Z" fill="#AD5735"/>
<path d="M281.108 406.954C280.097 405.801 279.136 405.317 277.749 405.972C276.796 406.421 276.112 407.275 275.346 407.998C274.58 408.721 273.587 409.362 272.545 409.207C271.168 409.002 270.392 407.573 269.383 406.614C268.115 405.408 266.234 404.884 264.525 405.26C261.839 409.01 257.161 411.522 252.553 411.728C251.341 411.782 250.123 411.692 248.917 411.813C247.71 411.933 246.479 412.289 245.583 413.106C244.924 413.706 244.491 414.596 244.492 415.471C244.493 415.986 244.93 416.397 245.445 416.397H280.437C280.867 416.397 281.243 416.113 281.352 415.696C281.828 413.872 282.883 408.979 281.108 406.954Z" fill="#5E2039"/>
<path d="M269.236 256.189C269.236 256.189 261.736 269.189 260.736 287.439C259.736 305.689 264.986 404.939 264.986 404.939H282.236L292.236 282.439L315.736 342.439L316.986 405.439H333.486C333.486 405.439 340.486 344.939 339.986 339.439C339.486 333.939 313.486 258.939 313.486 258.939L269.236 256.189Z" fill="white"/>
<path d="M268.57 259.856L313.737 262.689" stroke="#0E293A" stroke-width="0.5" stroke-miterlimit="10" stroke-linecap="round" stroke-linejoin="round"/>
<path d="M335.621 342.821C336.302 341.83 336.692 340.641 336.731 339.439" stroke="#0E293A" stroke-width="0.5" stroke-miterlimit="10" stroke-linecap="round" stroke-linejoin="round"/>
<path d="M312.338 152.874C310.426 146.657 299.512 143.499 291.297 149.656C287.479 152.517 286.313 158.121 286.152 163.302C285.972 163.197 285.809 163.114 285.701 163.079C284.156 162.572 282.49 163.643 281.912 165.088C281.451 166.238 281.608 167.588 282.206 168.674C282.702 169.577 283.551 170.446 284.494 170.886C284.731 170.997 285.804 171.255 286.575 171.245C287.066 174.697 288.57 177.961 291.086 180.38C294.258 183.431 298.5 184.87 302.867 184.29C306.263 183.839 311.369 182.055 312.85 178.672C313.235 177.792 313.336 176.817 313.417 175.86C314.039 168.549 314.524 159.983 312.338 152.874Z" fill="#AD5735"/>
<path d="M308.574 164.799C308.492 165.921 308.87 166.862 309.418 166.902C309.966 166.942 310.476 166.065 310.557 164.943C310.639 163.821 310.261 162.88 309.713 162.84C309.166 162.8 308.656 163.677 308.574 164.799Z" fill="#0E293A"/>
<path d="M301.964 164.319C301.882 165.441 301.372 166.318 300.824 166.278C300.276 166.238 299.898 165.297 299.98 164.175C300.062 163.053 300.572 162.176 301.12 162.216C301.668 162.255 302.046 163.197 301.964 164.319Z" fill="#0E293A"/>
<path d="M305.605 174.381C305.304 174.612 304.909 174.674 304.535 174.659C304.161 174.62 303.786 174.49 303.516 174.229C303.878 174.314 304.207 174.41 304.553 174.422C304.896 174.461 305.238 174.425 305.605 174.381Z" fill="#0E293A"/>
<path d="M303.301 157.335C302.868 156.891 302.354 156.719 301.805 156.654C301.26 156.602 300.695 156.625 300.151 156.767C299.604 156.892 299.088 157.157 298.65 157.488C298.195 157.805 297.859 158.243 297.574 158.678C297.43 158.898 297.492 159.193 297.712 159.337C297.888 159.452 298.112 159.436 298.268 159.312L298.311 159.278C298.655 159.004 298.986 158.748 299.347 158.571C299.696 158.371 300.08 158.275 300.461 158.205C300.845 158.145 301.241 158.127 301.641 158.177C302.036 158.219 302.456 158.27 302.899 158.196L303.027 158.175C303.299 158.129 303.481 157.872 303.436 157.6C303.418 157.496 303.37 157.405 303.301 157.335Z" fill="#0E293A"/>
<path d="M308.259 157.696C308.752 157.319 309.285 157.223 309.837 157.238C310.384 157.265 310.939 157.37 311.457 157.589C311.981 157.791 312.452 158.128 312.838 158.519C313.243 158.898 313.511 159.38 313.73 159.852C313.841 160.09 313.737 160.374 313.499 160.484C313.308 160.573 313.089 160.524 312.952 160.379L312.914 160.339C312.613 160.018 312.323 159.717 311.991 159.49C311.674 159.241 311.309 159.091 310.942 158.967C310.571 158.852 310.181 158.776 309.778 158.768C309.381 158.753 308.958 158.742 308.531 158.604L308.408 158.564C308.146 158.479 308.002 158.198 308.087 157.936C308.12 157.838 308.181 157.756 308.259 157.696Z" fill="#0E293A"/>
<path d="M307.511 161.412C307.631 162.19 307.705 162.96 307.792 163.723C307.884 164.484 307.968 165.244 308.13 165.97C308.166 166.152 308.209 166.332 308.26 166.506C308.301 166.649 308.407 166.925 308.385 167.174C308.374 167.683 308.014 168.156 307.586 168.327C307.146 168.533 306.661 168.461 306.286 168.302C305.906 168.133 305.581 167.896 305.305 167.614C305.998 167.933 306.814 168.203 307.343 167.861C307.609 167.688 307.763 167.443 307.747 167.162C307.745 167.018 307.706 166.925 307.631 166.7C307.568 166.504 307.515 166.308 307.472 166.112C307.311 165.323 307.256 164.533 307.269 163.748C307.28 162.964 307.352 162.183 307.511 161.412Z" fill="#0E293A"/>
<path d="M298.859 172.128C298.859 172.128 301.422 167.815 306.797 168.753C312.172 169.691 311.672 173.691 311.672 173.691C311.672 173.691 303.859 174.878 298.859 172.128Z" fill="#0E293A"/>
<path d="M283.008 166.082C283.031 165.615 283.197 165.108 283.635 164.776C284.099 164.45 284.718 164.528 285.178 164.74C285.667 164.95 286.054 165.324 286.349 165.732C286.652 166.145 286.863 166.585 287.024 167.085C287.082 167.263 286.984 167.455 286.805 167.512C286.67 167.555 286.529 167.51 286.442 167.409L286.421 167.384C286.115 167.025 285.727 166.637 285.342 166.497C285.149 166.432 285.003 166.427 284.86 166.515C284.712 166.604 284.589 166.807 284.481 167.017C284.276 167.45 284.133 167.963 284.498 168.197C284.88 168.453 285.468 168.44 285.994 168.409C285.487 168.589 284.93 168.731 284.326 168.511C284.02 168.387 283.797 168.013 283.8 167.69C283.793 167.367 283.86 167.078 283.962 166.798C284.067 166.522 284.207 166.23 284.503 166.003C284.803 165.771 285.25 165.744 285.558 165.864C286.187 166.104 286.594 166.507 286.966 166.968L286.364 167.268C286.11 166.468 285.658 165.622 284.946 165.203C284.59 165 284.16 164.879 283.796 165.049C283.417 165.213 283.164 165.645 283.008 166.082Z" fill="#0E293A"/>
<path d="M309.903 145.189C293.653 137.609 286.153 151.269 286.153 151.269C281.443 156.079 280.803 161.879 281.683 167.019C281.603 166.369 281.673 165.699 281.913 165.089C282.493 163.639 284.153 162.569 285.703 163.079C285.727 163.088 285.761 163.105 285.79 163.117C287.117 165.355 288.794 167.605 289.233 167.605C289.983 167.605 290.233 165.022 290.233 165.022C297.4 162.689 296.9 152.689 296.9 152.689C296.9 152.689 302.582 143.029 313.39 157.599C313.985 161.508 314.027 165.643 313.844 169.649C317.273 161.049 319.483 149.659 309.903 145.189Z" fill="#0E293A"/>
<path d="M284.493 170.889C283.553 170.449 282.703 169.579 282.203 168.669C282.023 168.349 281.883 167.989 281.793 167.629C282.933 173.539 285.983 178.489 286.943 179.929C286.953 175.869 286.653 172.369 286.553 171.249C285.783 171.259 284.733 170.999 284.493 170.889Z" fill="#0E293A"/>
<path d="M587.241 323.389C578.627 323.747 570.025 323.215 561.495 322L563.225 406.23C563.225 406.23 553.399 413.012 545.519 411.992C545.079 411.935 544.626 412.086 544.365 412.445C544.016 412.927 543.762 413.701 544.525 414.666C544.747 414.947 545.098 415.099 545.457 415.099H576.792C577.968 415.099 578.965 414.241 579.134 413.077C579.334 411.701 579.453 408.56 578.629 405.664C578.983 402.505 583.792 359.482 587.241 323.389Z" fill="#C27559"/>
<path d="M586.956 326.444C586.806 327.954 586.656 329.474 586.506 331.004C584.236 330.754 574.166 329.594 561.616 327.584L561.516 322.914C573.736 324.884 583.796 326.085 586.956 326.444Z" fill="#0E293A"/>
<path d="M564.859 338.376C565.377 339.45 565.896 340.525 566.414 341.599" stroke="#0E293A" stroke-width="0.5" stroke-miterlimit="10" stroke-linecap="round" stroke-linejoin="round"/>
<path d="M578.858 406.432C578.858 406.432 581.502 411.635 579.199 414.79C577.199 417.531 552.873 416.025 546.513 415.582C545.462 415.509 544.542 414.832 544.203 413.835C543.718 412.412 543.649 410.514 546.45 410.099C551.056 409.417 552.258 409.659 555.968 410.085C555.968 410.085 551.466 411.74 552.569 412.593C554.502 414.088 570.927 411.292 575.276 407.369C579.626 403.447 578.858 406.432 578.858 406.432Z" fill="white"/>
<path d="M543.903 318.56C536.221 316.676 528.741 314.384 521.414 311.374C520.583 311.033 519.751 310.692 518.92 310.349C517.072 316.091 515.165 322.2 513.259 328.429C512.93 329.505 512.728 330.616 512.659 331.74C511.164 355.978 510.077 381.324 509.551 394.806C509.398 398.673 509.291 401.56 509.232 403.17C507.693 403.924 499.897 407.552 493.348 407.108C493.437 407.426 493.515 407.747 493.607 408.064C496.52 410.609 501.23 410.847 505.238 411.024C509.201 411.199 513.322 411.492 517.277 411.083C519.894 410.812 521.757 409.994 523.516 408.77C523.391 407.034 523.168 405.151 522.924 403.664L535.215 336.619L543.903 318.56Z" fill="#C27559"/>
<path d="M543.388 319.625L541.328 323.905C532.548 322.095 523.858 319.945 516.648 317.495C517.108 316.015 517.568 314.565 518.028 313.125C525.448 315.625 534.408 317.796 543.388 319.625Z" fill="#0E293A"/>
<path d="M516.988 331.065C516.988 331.815 516.988 332.565 516.988 333.315" stroke="#0E293A" stroke-width="0.5" stroke-miterlimit="10" stroke-linecap="round" stroke-linejoin="round"/>
<path d="M524.944 405.843C524.944 405.843 526.773 411.385 524.021 414.157C521.63 416.565 497.81 411.408 491.589 410.01C490.561 409.779 489.754 408.971 489.568 407.934C489.304 406.454 489.521 404.568 492.352 404.58C497.008 404.6 498.16 405.021 501.763 406.002C501.763 406.002 497.062 406.959 498.025 407.969C499.711 409.738 516.369 409.452 521.261 406.23C526.153 403.008 524.944 405.843 524.944 405.843Z" fill="white"/>
<path d="M580.359 243.94C580.359 243.94 592.859 260.315 592.359 275.94C591.859 291.565 587.984 326.565 587.984 326.565C587.984 326.565 542.734 321.69 517.109 312.815C517.109 312.815 531.484 258.44 547.484 243.565L580.359 243.94Z" fill="#F16B5F"/>
<path d="M546.746 281.33C550.991 278.311 554.81 274.695 558.055 270.62" stroke="#0E293A" stroke-width="0.5" stroke-miterlimit="10" stroke-linecap="round" stroke-linejoin="round"/>
<path d="M559.712 272.055C556.117 280.363 551.594 288.269 546.254 295.578" stroke="#0E293A" stroke-width="0.5" stroke-miterlimit="10" stroke-linecap="round" stroke-linejoin="round"/>
<path d="M583.57 255.898C583.57 255.898 587.57 266.565 588.07 274.731C588.57 282.898 584.237 324.231 584.237 324.231" stroke="#0E293A" stroke-width="0.5" stroke-miterlimit="10" stroke-linecap="round" stroke-linejoin="round"/>
<path d="M555.072 201.788C554.486 194.884 546.699 192.411 542.253 197.618C540.933 199.167 539.511 201.276 538.056 204.125C535.725 208.685 531.475 216.156 526.51 224.616C513.772 217.772 502.32 211.507 497.733 208.988C497.727 208.985 497.722 208.982 497.716 208.979C496.631 205.295 494.717 202.775 493.718 201.515C492.943 200.537 492.177 200.678 491.733 200.899C491.507 201.011 491.447 201.275 491.588 201.48C492.261 202.455 493.221 204.532 492.705 205.23C492.123 206.017 485.291 199.751 484.218 200.561C483.787 200.887 488.528 205.477 488.528 205.477C488.528 205.477 482.506 201.504 482.3 202.414C482.093 203.324 486.935 207.5 486.935 207.5C486.935 207.5 480.444 204.246 480.625 205.251C480.807 206.256 485.458 209.476 485.458 209.476C482.962 208.543 481.807 208.512 481.285 208.634C481.037 208.692 480.967 208.967 481.159 209.131C483.157 210.827 488.396 212.476 491.709 213.397L491.711 213.4C499.202 223.336 508.626 231.655 518.278 238.519C519.238 239.2 520.2 239.867 521.163 240.52C527.509 244.824 536.151 242.853 540.086 236.272C540.766 235.135 541.423 234.012 542.057 232.908C546.9 224.474 550.423 217.085 552.687 212.329C554.762 207.972 555.301 204.503 555.072 201.788Z" fill="#C27559"/>
<path d="M553.612 190.565C553.612 190.565 543.987 194.065 541.487 197.232C538.987 200.399 526.82 223.399 526.82 223.399L540.737 235.649C540.737 235.649 553.57 212.566 553.904 211.149C554.237 209.732 552.404 192.566 552.404 192.566L553.612 190.565Z" fill="white"/>
<path d="M583.96 193.667C582.334 192.139 580.149 191.344 577.918 191.266C575.846 191.193 574.177 190.75 572.82 190.125C570.588 183.149 572.764 169.997 573.05 168.321C573.063 168.26 573.07 168.206 573.084 168.146L555.031 178.297C555.334 178.802 555.502 179.489 555.577 180.284V180.291C555.739 181.901 555.51 183.949 555.186 185.815C554.817 187.922 554.326 189.779 554.12 190.521C553.27 191.548 552.266 192.288 551.066 192.997C551.936 195.255 552.19 197.868 551.584 200.771C556.729 201.674 561.793 203.081 566.936 204.038C573.151 205.195 578.484 205.816 585.024 205.963C585.716 205.979 586.407 205.978 587.098 205.978C587.946 199.333 586.095 195.673 583.96 193.667Z" fill="#C27559"/>
<path d="M555.188 185.815C565.002 187.055 569.974 175.333 570.156 174.896C568.344 177.772 565.716 179.227 563.149 179.921C559.99 180.783 556.925 180.494 555.638 180.305C555.618 180.298 555.599 180.298 555.578 180.292C555.74 181.901 555.511 183.949 555.188 185.815Z" fill="#0E293A"/>
<path d="M553.611 190.565C553.611 190.565 552.486 197.19 558.736 198.065C564.986 198.94 572.736 189.94 572.736 189.94C572.736 189.94 581.111 190.815 583.361 192.19C585.611 193.565 588.611 199.815 588.361 202.815C588.111 205.815 580.861 240.065 582.236 242.065C583.611 244.065 585.361 247.565 583.611 249.19C581.861 250.815 542.361 251.19 542.236 247.94C542.111 244.69 543.861 228.065 541.986 224.065C540.111 220.065 537.236 214.19 537.861 209.69C538.486 205.19 545.486 195.44 547.861 193.94C550.236 192.44 553.611 190.565 553.611 190.565Z" fill="white"/>
<path d="M544.47 205.138C544.103 207.062 543.134 208.811 542.164 210.513C541.194 212.215 540.196 213.942 539.763 215.852C539.33 217.763 539.545 219.925 540.803 221.426" stroke="#0E293A" stroke-width="0.5" stroke-miterlimit="10" stroke-linecap="round" stroke-linejoin="round"/>
<path d="M551.984 194.315C551.984 194.315 556.111 207.934 569.989 195.803" stroke="#0E293A" stroke-width="0.5" stroke-miterlimit="10" stroke-linecap="round" stroke-linejoin="round"/>
<path d="M529.323 259.805H552.15C554.768 259.805 556.638 257.271 555.866 254.77L546.396 224.096C545.893 222.466 544.386 221.354 542.68 221.354H519.853C517.235 221.354 515.365 223.89 516.137 226.391L525.607 257.063C526.11 258.693 527.617 259.805 529.323 259.805Z" fill="#0E293A"/>
<path d="M604.374 240.586C604.236 240.106 604.097 239.629 603.957 239.154C599.066 222.624 592.472 208.922 588.915 201.553C586.82 197.208 584.456 194.615 582.192 193.092C576.446 189.219 569.643 193.739 570.916 200.475C571.293 202.476 572.048 204.901 573.354 207.817C576.197 214.149 580.993 226.597 585.924 239.78C570.568 240.271 558.17 240.571 557.471 240.588C554.665 237.914 551.716 236.688 550.208 236.097C549.046 235.642 548.455 236.149 548.183 236.563C548.045 236.774 548.125 237.032 548.35 237.138C549.422 237.642 551.296 238.955 551.201 239.817C551.094 240.79 542.037 238.809 541.517 240.049C541.308 240.547 547.714 242.132 547.714 242.132C547.714 242.132 540.511 241.726 540.79 242.616C541.069 243.507 547.354 244.682 547.354 244.682C547.354 244.682 540.107 245.133 540.769 245.91C541.431 246.687 547.071 247.132 547.071 247.132C544.444 247.581 543.431 248.134 543.04 248.503C542.855 248.678 542.932 248.951 543.181 248.996C546.218 249.539 553.106 247.768 555.996 246.96L555.988 246.995C567.493 251.966 579.901 254.519 591.797 255.658C591.853 255.663 591.909 255.669 591.965 255.674C600.247 256.453 606.667 248.582 604.374 240.586Z" fill="#C27559"/>
<path d="M557.438 240.59C557.438 240.59 590.363 239.316 595.238 240.316" stroke="#0E293A" stroke-width="0.5" stroke-miterlimit="10" stroke-linecap="round" stroke-linejoin="round"/>
<path d="M591.156 238.191L585.926 239.781" stroke="#0E293A" stroke-width="0.5" stroke-miterlimit="10" stroke-linecap="round" stroke-linejoin="round"/>
<path d="M571.407 204.316L584.407 236.733C584.407 236.733 599.657 233.483 602.24 232.066C602.24 232.066 589.323 198.233 584.99 193.899C580.657 189.566 573.073 190.482 571.74 193.399C570.407 196.316 569.657 199.816 571.407 204.316Z" fill="white"/>
<path d="M582.863 233.065L574.738 212.44L582.238 237.44L582.863 233.065Z" fill="#0E293A"/>
<path d="M578.089 162.709C577.617 161.226 576.033 160.038 574.456 160.431C574.346 160.458 574.183 160.525 573.995 160.616C574.208 155.438 573.447 149.766 569.848 146.639C562.102 139.903 550.987 142.26 548.629 148.323C546.797 153.032 546.143 158.501 545.948 163.83C545.86 166.1 545.854 168.35 545.881 170.499C545.881 170.721 545.888 170.944 545.888 171.166C545.901 172.129 545.928 173.106 546.252 174.015C547.478 177.498 552.442 179.646 555.797 180.34C560.115 181.236 564.446 180.111 567.834 177.295C570.518 175.066 572.251 171.919 572.994 168.512C573.763 168.578 574.85 168.397 575.094 168.304C576.066 167.934 576.976 167.128 577.537 166.263C578.21 165.224 578.465 163.89 578.089 162.709Z" fill="#C27559"/>
<path d="M550.206 167.172C550.206 169.072 548.663 170.614 546.764 170.614C546.461 170.614 546.164 170.574 545.881 170.499C545.854 168.35 545.861 166.1 545.948 163.83C546.211 163.763 546.48 163.729 546.763 163.729C548.663 163.73 550.206 165.272 550.206 167.172Z" fill="#C26644"/>
<path d="M563.905 170.615C565.807 170.615 567.349 169.073 567.349 167.171C567.349 165.268 565.807 163.727 563.905 163.727C562.003 163.727 560.461 165.268 560.461 167.171C560.461 169.073 562.003 170.615 563.905 170.615Z" fill="#C26644"/>
<path d="M552.017 160.488C552.017 161.613 551.572 162.524 551.022 162.524C550.473 162.524 550.027 161.612 550.027 160.488C550.027 159.363 550.472 158.452 551.022 158.452C551.571 158.451 552.017 159.363 552.017 160.488Z" fill="#0E293A"/>
<path d="M548.994 157.807C549.162 158.137 549.383 158.424 549.667 158.676C549.948 158.927 550.306 159.122 550.708 159.214L550.725 159.218C550.923 159.264 551.121 159.14 551.166 158.942C551.212 158.744 551.088 158.546 550.89 158.501C550.858 158.494 550.824 158.491 550.793 158.492C550.237 158.514 549.619 158.176 549.198 157.684L549.191 157.676C549.148 157.626 549.073 157.621 549.023 157.663C548.98 157.7 548.969 157.76 548.994 157.807Z" fill="#0E293A"/>
<path d="M558.645 160.488C558.645 161.613 559.09 162.524 559.64 162.524C560.19 162.524 560.635 161.612 560.635 160.488C560.635 159.363 560.19 158.452 559.64 158.452C559.09 158.452 558.645 159.363 558.645 160.488Z" fill="#0E293A"/>
<path d="M561.467 157.685C561.046 158.176 560.428 158.515 559.872 158.493C559.669 158.485 559.498 158.643 559.489 158.846C559.481 159.049 559.639 159.22 559.842 159.228C559.875 159.229 559.907 159.226 559.937 159.219L559.955 159.215C560.357 159.123 560.715 158.928 560.996 158.677C561.28 158.425 561.501 158.138 561.669 157.808C561.699 157.75 561.676 157.678 561.617 157.648C561.567 157.623 561.508 157.636 561.473 157.676L561.467 157.685Z" fill="#0E293A"/>
<path d="M551.598 166.648C551.943 167.319 552.468 167.899 553.097 168.353C553.725 168.807 554.512 169.098 555.324 169.092C556.129 169.072 556.921 168.798 557.54 168.327C557.865 168.114 558.119 167.817 558.399 167.563C558.633 167.262 558.862 166.96 559.067 166.648C558.76 166.873 558.48 167.112 558.198 167.344C557.885 167.534 557.605 167.768 557.288 167.928C556.67 168.282 555.995 168.476 555.321 168.487C554.644 168.503 553.969 168.289 553.346 167.954C552.726 167.61 552.141 167.166 551.598 166.648Z" fill="#0E293A"/>
<path d="M554.285 170.259C554.569 170.511 554.957 170.602 555.332 170.614C555.708 170.602 556.091 170.5 556.38 170.259C556.012 170.317 555.678 170.39 555.332 170.377C554.986 170.39 554.647 170.33 554.285 170.259Z" fill="#0E293A"/>
<path d="M557.82 153.425C558.284 153.013 558.809 152.879 559.361 152.854C559.908 152.841 560.47 152.906 561.002 153.087C561.539 153.251 562.034 153.553 562.447 153.915C562.878 154.264 563.181 154.725 563.434 155.18C563.562 155.41 563.479 155.7 563.249 155.827C563.065 155.929 562.843 155.897 562.696 155.762L562.656 155.725C562.332 155.427 562.021 155.148 561.674 154.945C561.34 154.72 560.964 154.597 560.59 154.499C560.212 154.411 559.817 154.364 559.415 154.385C559.018 154.399 558.595 154.419 558.159 154.312L558.033 154.281C557.765 154.216 557.602 153.946 557.667 153.678C557.692 153.577 557.746 153.49 557.82 153.425Z" fill="#0E293A"/>
<path d="M552.846 153.425C552.382 153.013 551.857 152.879 551.305 152.854C550.758 152.841 550.196 152.906 549.664 153.087C549.127 153.251 548.632 153.553 548.219 153.915C547.788 154.264 547.485 154.725 547.232 155.18C547.104 155.41 547.187 155.7 547.417 155.827C547.601 155.929 547.823 155.897 547.97 155.762L548.01 155.725C548.334 155.427 548.645 155.148 548.992 154.945C549.326 154.72 549.701 154.597 550.076 154.499C550.454 154.411 550.848 154.364 551.251 154.385C551.648 154.399 552.071 154.419 552.507 154.312L552.633 154.281C552.9 154.216 553.064 153.946 552.999 153.678C552.975 153.577 552.92 153.49 552.846 153.425Z" fill="#0E293A"/>
<path d="M555.104 157.377C554.928 158.144 554.799 158.906 554.656 159.661C554.509 160.413 554.37 161.165 554.156 161.878C554.107 162.057 554.051 162.233 553.987 162.404C553.935 162.543 553.81 162.811 553.814 163.061C553.788 163.569 554.113 164.068 554.528 164.269C554.952 164.507 555.441 164.47 555.826 164.338C556.217 164.197 556.559 163.985 556.854 163.723C556.14 163.991 555.306 164.201 554.803 163.821C554.551 163.629 554.414 163.374 554.45 163.095C554.463 162.952 554.508 162.861 554.599 162.643C554.676 162.452 554.743 162.261 554.801 162.068C555.019 161.292 555.131 160.509 555.174 159.725C555.222 158.941 555.206 158.157 555.104 157.377Z" fill="#0E293A"/>
<path d="M576.844 163.81C576.855 163.342 576.726 162.825 576.314 162.463C575.875 162.104 575.251 162.137 574.778 162.315C574.275 162.489 573.862 162.834 573.538 163.22C573.205 163.61 572.964 164.034 572.767 164.52C572.697 164.694 572.781 164.892 572.954 164.962C573.085 165.015 573.23 164.98 573.323 164.886L573.345 164.863C573.676 164.527 574.092 164.168 574.485 164.057C574.682 164.006 574.828 164.012 574.964 164.11C575.105 164.21 575.213 164.421 575.306 164.638C575.48 165.084 575.584 165.607 575.203 165.814C574.804 166.041 574.218 165.986 573.696 165.917C574.189 166.133 574.733 166.315 575.352 166.139C575.666 166.037 575.916 165.68 575.937 165.358C575.967 165.036 575.921 164.743 575.84 164.456C575.755 164.173 575.637 163.872 575.358 163.624C575.075 163.371 574.632 163.311 574.316 163.409C573.672 163.603 573.237 163.975 572.832 164.408L573.411 164.751C573.723 163.971 574.235 163.16 574.974 162.795C575.344 162.618 575.782 162.528 576.132 162.725C576.499 162.913 576.72 163.362 576.844 163.81Z" fill="#0E293A"/>
<path d="M599.533 173.995C597.629 169.596 592.619 167.191 590.601 162.843C588.027 157.299 591.041 150.273 588.201 144.86C586.828 142.244 584.118 140.377 581.185 140.027C578.943 139.759 576.336 140.449 574.397 141.825C572.487 140.115 569.827 139.474 567.267 139.334C565.557 139.234 563.827 139.344 562.147 139.664C559.737 140.124 557.367 141.034 554.917 140.964C551.847 140.884 548.727 139.284 545.827 140.284C543.657 141.034 542.157 143.164 541.657 145.404C541.157 147.654 541.497 150.004 542.067 152.224C542.917 155.544 544.267 158.744 546.057 161.664C546.247 158.655 546.607 155.627 547.276 152.758C548.842 153.117 550.532 153.056 551.985 152.516C553.328 154.274 555.611 155.128 557.823 155.174C560.035 155.22 562.451 154.278 564.51 153.471C565.747 157.125 567.326 160.663 569.221 164.023C569.512 164.539 569.897 165.109 570.487 165.167C571.018 165.218 571.481 164.824 571.84 164.431C572.876 163.297 573.649 161.931 574.115 160.468C574.104 160.503 574.098 160.539 574.086 160.574C574.236 160.504 574.366 160.454 574.456 160.434C576.036 160.034 577.616 161.224 578.096 162.704C578.466 163.894 578.216 165.224 577.536 166.264C576.976 167.124 576.066 167.934 575.096 168.304C574.856 168.394 573.786 168.574 573.016 168.514C572.856 169.484 572.406 172.274 572.116 175.684C575.012 173.468 577.488 170.621 579.064 167.367C579.392 171.626 578.854 175.951 577.389 179.965C576.434 182.583 575.156 185.662 576.747 187.95C578.214 190.059 581.301 190.153 583.811 189.606C586.321 189.06 588.925 188.094 591.382 188.844C592.927 189.316 594.352 190.453 595.956 190.262C597.18 190.116 598.198 189.186 598.777 188.098C599.357 187.01 599.571 185.771 599.778 184.556C600.378 181.033 600.953 177.275 599.533 173.995Z" fill="#0E293A"/>
<path d="M205.604 414.104C205.625 414.112 205.646 414.121 205.666 414.129C209.496 415.654 213.593 416.395 217.716 416.395H269.221C276.17 416.395 282.981 414.264 288.588 410.16C325.486 383.152 328.829 322.538 308.15 315.191C256.63 296.887 256.554 229.475 195.408 235.028C156.767 238.538 147.273 286.034 145.519 320.522C143.481 360.593 166.58 397.925 203.638 413.305C204.286 413.573 204.942 413.84 205.604 414.104Z" fill="#629EEB"/>
<path d="M177.738 339.49C177.738 339.49 193.571 325.823 209.905 326.99C209.905 326.99 185.405 318.823 179.238 310.99" stroke="#0E293A" stroke-width="0.5" stroke-miterlimit="10" stroke-linecap="round" stroke-linejoin="round"/>
<path d="M306.261 414.061C309.763 413.166 313.273 412.302 316.794 411.477C322.953 410.034 329.34 408.968 335.233 406.634C328.267 407.26 320.356 404.02 320.356 404.02C320.356 404.02 319.979 400.016 319.377 393.672C317.855 394.063 316.33 394.433 314.798 394.773C314.188 394.928 313.579 395.088 312.969 395.24C309.756 396.039 306.524 396.7 303.285 397.281L305.2 406.595C304.974 409.622 305.762 412.714 306.261 414.061Z" fill="#F2AE96"/>
<path d="M304.648 406.591C305.412 405.262 306.26 404.599 307.748 404.968C308.77 405.222 309.61 405.925 310.503 406.483C311.396 407.041 312.495 407.475 313.486 407.118C314.796 406.647 315.276 405.093 316.077 403.954C317.084 402.523 318.825 401.639 320.575 401.671C323.946 404.82 329.026 406.364 333.585 405.661C334.784 405.476 335.96 405.149 337.167 405.03C338.374 404.911 339.651 405.018 340.69 405.643C341.454 406.102 342.053 406.89 342.224 407.748C342.325 408.253 341.977 408.742 341.472 408.843L307.162 415.718C306.74 415.803 306.316 415.598 306.127 415.211C305.301 413.516 303.305 408.926 304.648 406.591Z" fill="white"/>
<path d="M241.07 318.163L291.237 342.83L304.07 404.997C304.07 404.997 318.403 401.497 321.07 401.164C323.281 400.888 315.75 351.093 313.114 334.102C312.56 330.53 310.538 327.358 307.537 325.344L247.903 285.331C247.904 285.329 247.404 314.496 241.07 318.163Z" fill="#FBAC4D"/>
<path d="M243.156 318.413L250.989 302.746L254.989 325.079L244.156 319.746L243.156 318.413Z" fill="#0E293A"/>
<path d="M295.738 364.871L320.446 386.579L319.03 374.788L295.488 363.246L295.738 364.871Z" fill="#0E293A"/>
<path d="M308.57 330.663C308.848 331.774 309.126 332.885 309.403 333.996" stroke="#0E293A" stroke-width="0.5" stroke-miterlimit="10" stroke-linecap="round" stroke-linejoin="round"/>
<path d="M250.906 318.329L294.906 340.163L301.906 367.829" stroke="#0E293A" stroke-width="0.5" stroke-miterlimit="10" stroke-linecap="round" stroke-linejoin="round"/>
<path d="M327.814 414.725C330.051 411.37 332.082 407.845 334.109 404.584C335.728 401.98 337.531 399.475 339.348 396.98C339.559 396.618 339.785 396.269 340.001 395.911C336.418 397.618 333.33 398.435 333.33 398.435L322.377 388.982C319.733 393.988 317.11 399.016 314.375 403.971C319.086 407.187 322.174 409.287 322.879 409.765C324.388 412.043 326.548 413.853 327.814 414.725Z" fill="#F2AE96"/>
<path d="M323.161 410.285C322.975 408.763 323.255 407.724 324.667 407.126C325.637 406.715 326.73 406.774 327.779 406.685C328.829 406.596 329.968 406.283 330.547 405.402C331.312 404.239 330.763 402.708 330.721 401.317C330.668 399.568 331.53 397.816 332.949 396.792C337.535 397.288 342.525 395.475 345.75 392.176C346.598 391.309 347.343 390.341 348.237 389.521C349.131 388.701 350.217 388.021 351.423 387.897C352.31 387.806 353.262 388.077 353.913 388.66C354.297 389.004 354.312 389.604 353.969 389.988L330.649 416.076C330.362 416.397 329.9 416.488 329.517 416.291C327.839 415.432 323.487 412.958 323.161 410.285Z" fill="white"/>
<path d="M208.335 287.992C208.335 287.992 201.46 311.265 208.069 324.329C215.236 338.496 322.236 410.496 322.236 410.496L332.736 397.329L243.069 318.662C243.069 318.662 255.069 303.829 248.069 285.829C248.069 285.829 235.101 292.155 208.335 287.992Z" fill="#FBAC4D"/>
<path d="M278.684 354.985C278.836 356.597 278.987 358.21 279.139 359.822" stroke="#0E293A" stroke-width="0.5" stroke-miterlimit="10" stroke-linecap="round" stroke-linejoin="round"/>
<path d="M211.235 289.829C211.235 289.829 206.402 314.996 212.235 323.496C218.068 331.996 315.568 401.996 315.568 401.996" stroke="#0E293A" stroke-width="0.5" stroke-miterlimit="10" stroke-linecap="round" stroke-linejoin="round"/>
<path d="M218.066 291.329C218.066 291.329 212.566 306.329 209.566 306.329" stroke="#0E293A" stroke-width="0.5" stroke-miterlimit="10" stroke-linecap="round" stroke-linejoin="round"/>
<path d="M216.636 236.895C219.106 230.087 216.38 216.079 216.035 214.35C216.02 214.29 216.012 214.236 215.996 214.176L234.327 223.815C234.038 224.329 233.889 225.02 233.837 225.817V225.824C233.721 227.438 234.007 229.478 234.383 231.335C234.938 234.049 235.69 236.359 235.69 236.359L216.636 236.895Z" fill="#F2AE96"/>
<path d="M234.382 231.335C224.606 232.85 219.307 221.274 219.113 220.841C221.005 223.665 223.672 225.046 226.257 225.667C229.439 226.44 232.495 226.064 233.776 225.839C233.796 225.832 233.816 225.831 233.836 225.824C233.72 227.438 234.006 229.479 234.382 231.335Z" fill="#0E293A"/>
<path d="M216.987 235.746C216.987 235.746 226.82 238.913 236.07 235.996C236.07 235.996 244.237 240.829 246.737 242.746C249.237 244.663 247.404 261.079 247.404 266.829C247.404 272.579 248.404 286.329 248.404 286.329C248.404 286.329 228.571 294.079 207.737 287.912C207.737 287.912 203.737 255.829 202.487 252.162C201.237 248.495 203.237 240.662 208.237 238.329C212.234 236.464 216.987 235.746 216.987 235.746Z" fill="white"/>
<path d="M227.571 237.913C227.571 237.913 228.488 234.996 226.821 234.413C225.154 233.83 217.571 231.684 217.571 231.684C217.571 231.684 217.696 230.163 217.654 229.621C217.654 229.621 214.196 230.371 213.883 231.475C213.57 232.579 213.216 236.538 213.362 236.767C213.509 236.996 224.905 239.475 227.571 237.913Z" fill="white"/>
<path d="M228.424 239.559C228.424 239.559 226.643 235.528 227.143 234.684C227.643 233.84 234.768 233.121 234.768 233.121L234.237 230.465C234.237 230.465 236.737 230.621 237.862 231.621C238.987 232.621 238.393 237.746 238.393 237.746C238.393 237.746 232.236 240.59 228.424 239.559Z" fill="white"/>
<path d="M227.322 236.217C227.322 236.217 225.063 239.687 225.122 240.395C225.181 241.104 225.949 244.647 226.599 244.588C227.249 244.529 228.902 244.588 228.902 244.588C228.902 244.588 230.497 241.34 230.201 239.863C229.905 238.386 227.322 236.217 227.322 236.217Z" fill="#0E293A"/>
<path d="M226.573 242.996L224.568 281.632C224.558 281.83 224.598 282.027 224.684 282.205L229.107 291.335C229.566 292.284 230.946 292.195 231.28 291.195L234.487 281.59C234.544 281.418 234.561 281.236 234.536 281.056L229.24 242.829L226.573 242.996Z" fill="#0E293A"/>
<path d="M213.27 236.459C215.124 238.118 217.441 239.15 219.717 240.155C220.716 240.596 221.751 241.045 222.842 241.048C223.934 241.05 225.717 240.113 226.072 239.081" stroke="#0E293A" stroke-width="0.5" stroke-miterlimit="10" stroke-linecap="round" stroke-linejoin="round"/>
<path d="M228.793 238.186C228.936 239.34 230.018 240.211 231.16 240.429C232.302 240.647 233.48 240.337 234.562 239.912C235.878 239.396 237.127 238.707 238.266 237.869" stroke="#0E293A" stroke-width="0.5" stroke-miterlimit="10" stroke-linecap="round" stroke-linejoin="round"/>
<path d="M148.737 267.276C150.042 268.465 151.388 269.601 152.752 270.712C153.761 268.049 154.805 265.4 155.867 262.757C153.865 262.133 152.586 261.733 152.24 261.626C152.234 261.624 152.237 261.625 152.231 261.623C150.417 258.09 147.978 255.932 146.726 254.867C145.77 254.054 145.048 254.35 144.658 254.66C144.46 254.818 144.454 255.092 144.634 255.267C145.49 256.098 146.848 257.966 146.484 258.764C146.073 259.665 138.118 254.832 137.23 255.857C136.873 256.269 142.442 259.862 142.442 259.862C142.442 259.862 135.743 257.143 135.724 258.089C135.705 259.035 141.289 262.197 141.289 262.197C141.289 262.197 134.275 260.288 134.656 261.249C135.037 262.21 140.241 264.46 140.241 264.46C137.608 264.042 136.471 264.247 135.984 264.475C135.753 264.583 135.739 264.871 135.961 264.994C138.679 266.504 145.823 267.027 148.796 267.182L148.737 267.276Z" fill="#F2AE96"/>
<path d="M216.988 235.746C216.988 235.746 207.988 234.746 201.613 244.246C195.238 253.746 182.738 270.121 182.738 270.121L152.738 261.121C152.738 261.121 147.488 269.121 147.488 270.121C147.488 271.121 177.863 290.496 186.488 287.746C195.113 284.996 210.488 262.621 210.488 262.621L216.988 235.746Z" fill="white"/>
<path d="M205.238 269.828C205.238 269.828 211.905 258.411 211.905 258.745C211.905 259.079 206.822 280.912 206.822 280.912L205.238 269.828Z" fill="#0E293A"/>
<path d="M184.32 286.25C185.161 286.339 186.03 286.126 186.735 285.661" stroke="#0E293A" stroke-width="0.5" stroke-miterlimit="10" stroke-linecap="round" stroke-linejoin="round"/>
<path d="M152.738 261.121L186.655 271.246" stroke="#0E293A" stroke-width="0.5" stroke-miterlimit="10" stroke-linecap="round" stroke-linejoin="round"/>
<path d="M186.988 269.413L182.738 270.121" stroke="#0E293A" stroke-width="0.5" stroke-miterlimit="10" stroke-linecap="round" stroke-linejoin="round"/>
<path d="M209.809 238.26C211.252 239.41 212.351 240.986 212.933 242.736" stroke="#0E293A" stroke-width="0.5" stroke-miterlimit="10" stroke-linecap="round" stroke-linejoin="round"/>
<path d="M243.26 216.432C243.143 209.096 242.765 200.524 239.875 193.672C237.348 187.678 226.171 185.634 218.617 192.586C215.107 195.817 214.51 201.509 214.87 206.68C214.68 206.594 214.51 206.527 214.399 206.503C212.811 206.154 211.261 207.387 210.831 208.883C210.488 210.074 210.78 211.401 211.484 212.421C212.069 213.269 213.001 214.049 213.983 214.392C214.23 214.478 215.324 214.628 216.09 214.541C216.925 217.926 218.75 221.021 221.496 223.175C224.959 225.891 229.323 226.897 233.61 225.881C236.943 225.091 241.844 222.803 242.978 219.288C243.274 218.373 243.275 217.393 243.26 216.432Z" fill="#F2AE96"/>
<path d="M237.322 205.915C237.354 207.039 237.824 207.938 238.374 207.923C238.923 207.907 239.343 206.984 239.311 205.859C239.279 204.735 238.809 203.836 238.26 203.852C237.71 203.867 237.29 204.791 237.322 205.915Z" fill="#0E293A"/>
<path d="M230.702 206.101C230.734 207.225 230.314 208.149 229.765 208.164C229.216 208.18 228.745 207.281 228.713 206.157C228.681 205.033 229.101 204.109 229.65 204.093C230.199 204.078 230.67 204.977 230.702 206.101Z" fill="#0E293A"/>
<path d="M235.336 215.745C235.06 216.005 234.674 216.107 234.299 216.129C233.923 216.128 233.537 216.036 233.242 215.804C233.611 215.852 233.947 215.915 234.293 215.892C234.639 215.896 234.976 215.827 235.336 215.745Z" fill="#0E293A"/>
<path d="M234.85 213.057C234.85 213.801 234.624 214.404 234.345 214.404C234.066 214.404 233.84 213.801 233.84 213.057C233.84 212.313 234.066 211.71 234.345 211.71C234.624 211.71 234.85 212.313 234.85 213.057Z" fill="#0E293A"/>
<path d="M231.327 200.59C230.852 200.191 230.323 200.072 229.77 200.063C229.223 200.066 228.663 200.146 228.136 200.342C227.604 200.521 227.118 200.837 226.715 201.21C226.294 201.571 226.004 202.041 225.764 202.502C225.643 202.735 225.734 203.023 225.967 203.144C226.154 203.241 226.375 203.202 226.518 203.063L226.557 203.025C226.872 202.718 227.175 202.43 227.517 202.218C227.844 201.984 228.216 201.85 228.589 201.742C228.965 201.644 229.357 201.585 229.76 201.595C230.157 201.597 230.58 201.606 231.013 201.487L231.138 201.453C231.403 201.38 231.56 201.106 231.487 200.84C231.46 200.738 231.402 200.653 231.327 200.59Z" fill="#0E293A"/>
<path d="M236.299 198.261C236.751 197.836 237.273 197.687 237.824 197.647C238.37 197.619 238.934 197.667 239.471 197.834C240.012 197.983 240.516 198.271 240.939 198.621C241.38 198.958 241.696 199.41 241.961 199.857C242.095 200.083 242.021 200.375 241.794 200.509C241.613 200.616 241.39 200.59 241.239 200.459L241.198 200.423C240.866 200.134 240.547 199.864 240.194 199.671C239.854 199.455 239.475 199.343 239.097 199.256C238.716 199.179 238.321 199.143 237.919 199.175C237.523 199.2 237.101 199.232 236.662 199.138L236.535 199.111C236.266 199.053 236.094 198.788 236.152 198.519C236.175 198.417 236.227 198.328 236.299 198.261Z" fill="#0E293A"/>
<path d="M235.927 202.652C236.124 203.414 236.275 204.172 236.439 204.923C236.607 205.671 236.767 206.418 237.001 207.125C237.056 207.303 237.116 207.477 237.185 207.646C237.24 207.784 237.373 208.048 237.376 208.298C237.416 208.805 237.105 209.313 236.696 209.525C236.279 209.774 235.789 209.751 235.4 209.631C235.005 209.501 234.658 209.298 234.355 209.045C235.076 209.293 235.916 209.479 236.407 209.085C236.654 208.886 236.783 208.627 236.739 208.349C236.722 208.206 236.675 208.117 236.577 207.901C236.495 207.713 236.422 207.523 236.359 207.332C236.119 206.563 235.985 205.783 235.92 205.001C235.853 204.219 235.846 203.435 235.927 202.652Z" fill="#0E293A"/>
<path d="M212.019 209.76C211.994 209.293 212.109 208.772 212.511 208.398C212.939 208.027 213.564 208.042 214.042 208.207C214.55 208.367 214.972 208.7 215.307 209.077C215.65 209.458 215.904 209.874 216.114 210.355C216.189 210.527 216.111 210.727 215.939 210.802C215.809 210.859 215.664 210.828 215.568 210.736L215.545 210.714C215.205 210.387 214.779 210.04 214.383 209.94C214.185 209.894 214.039 209.905 213.906 210.006C213.768 210.11 213.666 210.324 213.579 210.544C213.418 210.995 213.328 211.52 213.715 211.716C214.121 211.932 214.704 211.86 215.224 211.777C214.737 212.007 214.198 212.204 213.575 212.046C213.258 211.953 212.998 211.603 212.969 211.282C212.93 210.961 212.968 210.667 213.04 210.378C213.117 210.093 213.227 209.788 213.498 209.533C213.773 209.272 214.215 209.2 214.533 209.289C215.182 209.465 215.628 209.825 216.044 210.246L215.475 210.605C215.141 209.834 214.607 209.038 213.857 208.693C213.482 208.527 213.042 208.449 212.698 208.656C212.339 208.855 212.131 209.31 212.019 209.76Z" fill="#3D1525"/>
<path d="M242.453 203.733C242.587 204.7 242.703 205.672 242.795 206.646C244.265 201.086 244.395 195.146 243.065 189.536C242.505 187.166 241.435 184.576 239.145 183.766C237.595 183.216 235.795 183.676 234.525 184.716C233.945 185.196 233.325 185.826 232.585 185.686C231.875 185.556 231.525 184.786 231.135 184.176C230.085 182.556 228.085 181.686 226.155 181.786C224.235 181.886 222.415 182.876 221.085 184.266C219.745 185.656 218.855 187.416 218.265 189.256C217.065 187.836 214.675 187.976 213.225 189.156C211.785 190.336 211.135 192.226 210.855 194.066C210.485 196.406 210.635 198.756 211.225 201.046C210.485 200.496 209.365 200.776 208.725 201.436C208.085 202.096 207.825 203.036 207.675 203.946C207.015 208.056 208.165 212.306 210.185 215.956C212.095 219.406 214.745 222.386 217.505 225.206C217.165 220.306 216.325 215.816 216.075 214.536C215.305 214.626 214.235 214.476 213.985 214.396C213.005 214.046 212.065 213.266 211.485 212.416C210.785 211.396 210.485 210.076 210.835 208.886C211.265 207.386 212.815 206.156 214.405 206.506C214.515 206.526 214.685 206.596 214.875 206.676C214.874 206.662 214.874 206.647 214.873 206.633C215.549 207.071 216.27 207.425 216.94 207.652C217.986 208.007 219.273 207.99 220.048 207.203C220.561 206.682 220.751 205.931 220.895 205.213C221.406 202.65 221.712 200.113 221.545 197.504C222.404 199.861 224.913 201.505 227.417 201.352C229.921 201.199 232.211 199.263 232.777 196.819C233.297 198.3 233.902 199.455 235.215 200.315C236.528 201.175 238.25 201.468 239.71 200.894C240.507 200.58 241.188 199.983 241.634 199.255C241.805 199.994 241.963 200.738 242.099 201.493C242.18 202.39 242.305 203.204 242.453 203.733Z" fill="#F16B5F"/>
<path d="M296.662 297.873C296.609 296.518 287.38 295.318 287.622 294.358C287.836 293.507 290.064 292.898 291.252 292.785C291.501 292.761 291.668 292.544 291.612 292.296C291.501 291.81 291.123 291.128 289.869 291.165C288.127 291.216 284.579 291.39 280.693 293.307C279.511 292.845 277.967 292.241 276.122 291.518C276.025 292.16 275.924 292.801 275.829 293.442C275.452 295.996 275.103 298.539 274.734 301.076C277.291 301.116 279.857 301.066 282.422 300.902L282.436 300.799C285.283 302.741 289.507 305.386 291.942 305.799C292.192 305.841 292.361 305.609 292.248 305.379C292.01 304.896 291.251 304.026 288.934 302.706C288.934 302.706 294.403 304.202 295.301 303.69C296.199 303.178 289.531 300.283 289.531 300.283C289.531 300.283 295.866 301.306 296.442 300.555C297.019 299.805 290.09 297.74 290.09 297.74C290.09 297.74 296.684 298.417 296.662 297.873Z" fill="#F2AE96"/>
<path d="M235.656 237.02C235.656 237.02 251.575 239.366 254.738 247.025C257.901 254.683 261.717 280.558 261.717 280.558L281.685 292.045C281.685 292.045 280.378 302.239 279.64 303.021C278.902 303.803 251.231 293.959 244.49 286.241C237.749 278.521 235.656 237.02 235.656 237.02Z" fill="white"/>
<path d="M259.735 293.289L248.277 285.581C248.277 285.581 245.277 258.164 245.277 258.289C245.277 258.414 250.569 285.081 250.569 285.081L259.735 293.289Z" fill="#0E293A"/>
<path d="M242.949 242.562C243.363 241.648 244.052 240.861 244.903 240.329" stroke="#0E293A" stroke-width="0.5" stroke-miterlimit="10" stroke-linecap="round" stroke-linejoin="round"/>
<path d="M272.959 312.808H230.526C229.4 312.808 228.488 311.895 228.488 310.77C228.488 309.644 229.401 308.732 230.526 308.732H272.959V312.808Z" fill="#0E293A"/>
<path d="M300.87 308.732H256.398L263.453 275.868C263.607 275.15 264.242 274.637 264.977 274.637H306.26C307.253 274.637 307.992 275.552 307.784 276.523L300.87 308.732Z" fill="#0E293A"/>
<path d="M298.808 312.808H256.375V308.732H300.847V310.77C300.847 311.895 299.934 312.808 298.808 312.808Z" fill="#0E293A"/>
<path d="M657.043 416.395H82.4362C81.8672 416.395 81.4062 415.948 81.4062 415.395C81.4062 414.842 81.8672 414.395 82.4362 414.395H657.043C657.612 414.395 658.073 414.842 658.073 415.395C658.073 415.948 657.612 416.395 657.043 416.395Z" fill="#048FA6"/>
</g>
<defs>
<clipPath id="clip0_225_2058">
<rect width="750" height="500" fill="white"/>
</clipPath>
</defs>
</svg>
