<svg width="55" height="55" viewBox="0 0 55 55" fill="none" xmlns="http://www.w3.org/2000/svg">
<path d="M23.9851 31.4657H38.5286V21.7701H23.9851V31.4657ZM14.2895 36.3136C13.4007 36.3136 12.6399 35.9971 12.007 35.3642C11.3741 34.7313 11.0576 33.9704 11.0576 33.0817V13.6904C11.0576 12.8016 11.3741 12.0408 12.007 11.4079C12.6399 10.775 13.4007 10.4585 14.2895 10.4585H40.1445C41.0333 10.4585 41.7941 10.775 42.4271 11.4079C43.06 12.0408 43.3764 12.8016 43.3764 13.6904V33.0817C43.3764 33.9704 43.06 34.7313 42.4271 35.3642C41.7941 35.9971 41.0333 36.3136 40.1445 36.3136H14.2895ZM14.2895 33.0817H40.1445V13.6904H14.2895V33.0817Z" fill="#5CB2B1"/>
<path d="M19.2166 41.9725C19.3818 41.9986 19.5318 42.066 19.6666 42.1747C19.8057 42.2834 19.9144 42.4181 19.9926 42.579C20.0752 42.7398 20.1165 42.9116 20.1165 43.0941C20.1165 43.3246 20.0578 43.5332 19.9405 43.7202C19.8231 43.9027 19.6514 44.0484 19.4253 44.1571C19.2036 44.2614 18.9406 44.3136 18.6363 44.3136H16.9408V39.7684H18.5711C18.8797 39.7684 19.1427 39.8206 19.3601 39.9249C19.5775 40.0249 19.7405 40.1619 19.8492 40.3358C19.9579 40.5097 20.0122 40.7053 20.0122 40.9227C20.0122 41.1922 19.9383 41.4161 19.7905 41.5943C19.647 41.7682 19.4557 41.8943 19.2166 41.9725ZM17.5342 41.7313H18.5319C18.8102 41.7313 19.0254 41.666 19.1775 41.5356C19.3297 41.4052 19.4057 41.2248 19.4057 40.9944C19.4057 40.764 19.3297 40.5836 19.1775 40.4531C19.0254 40.3227 18.8058 40.2575 18.5189 40.2575H17.5342V41.7313ZM18.5841 43.8245C18.8797 43.8245 19.1101 43.7549 19.2753 43.6158C19.4405 43.4767 19.5231 43.2833 19.5231 43.0355C19.5231 42.7833 19.4362 42.5855 19.2623 42.442C19.0884 42.2942 18.8558 42.2203 18.5645 42.2203H17.5342V43.8245H18.5841ZM23.3332 44.3136L22.2507 42.4551H21.5334V44.3136H20.94V39.7684H22.4072C22.7507 39.7684 23.0398 39.8271 23.2745 39.9445C23.5136 40.0619 23.6919 40.2206 23.8092 40.4205C23.9266 40.6205 23.9853 40.8487 23.9853 41.1052C23.9853 41.4182 23.894 41.6943 23.7114 41.9334C23.5332 42.1725 23.2637 42.3312 22.9028 42.4094L24.044 44.3136H23.3332ZM21.5334 41.9791H22.4072C22.7289 41.9791 22.9702 41.9008 23.1311 41.7443C23.2919 41.5834 23.3723 41.3704 23.3723 41.1052C23.3723 40.8357 23.2919 40.627 23.1311 40.4792C22.9746 40.3314 22.7333 40.2575 22.4072 40.2575H21.5334V41.9791ZM27.594 43.3028H25.6116L25.2465 44.3136H24.6204L26.2637 39.7945H26.9484L28.5852 44.3136H27.9592L27.594 43.3028ZM27.4245 42.8203L26.6028 40.5249L25.7812 42.8203H27.4245ZM32.8749 44.3136H32.2815L29.8948 40.6944V44.3136H29.3014V39.7619H29.8948L32.2815 43.3745V39.7619H32.8749V44.3136ZM35.3015 39.7684C35.7971 39.7684 36.2253 39.8619 36.5862 40.0488C36.9513 40.2314 37.2296 40.4944 37.4208 40.8379C37.6165 41.1813 37.7143 41.5856 37.7143 42.0508C37.7143 42.5159 37.6165 42.9202 37.4208 43.2637C37.2296 43.6028 36.9513 43.8636 36.5862 44.0462C36.2253 44.2244 35.7971 44.3136 35.3015 44.3136H33.8865V39.7684H35.3015ZM35.3015 43.8245C35.8884 43.8245 36.3362 43.6702 36.6449 43.3615C36.9535 43.0485 37.1078 42.6116 37.1078 42.0508C37.1078 41.4856 36.9513 41.0444 36.6383 40.727C36.3297 40.4097 35.8841 40.251 35.3015 40.251H34.4799V43.8245H35.3015Z" fill="#5CB2B1"/>
</svg>
