<svg width="54" height="55" viewBox="0 0 54 55" fill="none" xmlns="http://www.w3.org/2000/svg">
<path fill-rule="evenodd" clip-rule="evenodd" d="M32.4648 10.1681C32.674 10.2642 32.8651 10.3875 33.0332 10.5334C32.9059 10.5955 32.7552 10.6686 32.5857 10.7502C32.0349 11.015 31.2876 11.3673 30.4977 11.7188C29.705 12.0714 28.8826 12.4174 28.1784 12.6733C27.8258 12.8013 27.516 12.9021 27.262 12.9696C26.9903 13.0418 26.8475 13.058 26.8035 13.058C26.7596 13.058 26.6168 13.0418 26.3451 12.9696C26.0911 12.9021 25.7813 12.8013 25.4287 12.6733C24.7245 12.4174 23.9021 12.0714 23.1094 11.7188C22.3195 11.3673 21.5721 11.015 21.0214 10.7502C20.8518 10.6686 20.7012 10.5955 20.5739 10.5334C20.742 10.3875 20.9331 10.2642 21.1423 10.1681C22.6491 9.4756 25.2944 8.36835 26.8035 8.36835C28.3127 8.36835 30.958 9.4756 32.4648 10.1681ZM27.823 22.5213V14.9301C28.1467 14.8424 28.5049 14.724 28.8747 14.5897C29.6436 14.3103 30.5152 13.9426 31.3265 13.5817C32.1406 13.2195 32.9071 12.8581 33.4694 12.5877C33.599 12.5253 33.718 12.4677 33.8243 12.416C33.8878 13.1706 33.94 14.1906 33.94 15.5048C33.94 17.1076 33.8624 18.2729 33.7813 19.0527C33.6988 19.8472 33.1905 20.5079 32.4648 20.8414C31.2582 21.396 29.3217 22.2164 27.823 22.5213ZM21.1423 20.8414C20.4166 20.5079 19.9083 19.8472 19.8258 19.0527C19.7447 18.2729 19.6671 17.1076 19.6671 15.5048C19.6671 14.1906 19.7193 13.1706 19.7827 12.416C19.889 12.4677 20.008 12.5253 20.1377 12.5877C20.6999 12.8581 21.4665 13.2195 22.2806 13.5817C23.0919 13.9426 23.9635 14.3103 24.7324 14.5897C25.1022 14.724 25.4604 14.8424 25.7841 14.9301V22.5213C24.2853 22.2164 22.3489 21.396 21.1423 20.8414ZM24.3089 24.6108C24.5181 24.7069 24.7092 24.8303 24.8773 24.9761C24.75 25.0383 24.5993 25.1114 24.4298 25.1929C23.879 25.4578 23.1317 25.81 22.3418 26.1615C21.5491 26.5142 20.7267 26.8601 20.0225 27.116C19.6699 27.2441 19.3601 27.3448 19.1061 27.4123C18.8344 27.4846 18.6916 27.5007 18.6476 27.5007C18.6037 27.5007 18.4609 27.4846 18.1892 27.4123C17.9352 27.3448 17.6254 27.2441 17.2728 27.116C16.5686 26.8601 15.7462 26.5142 14.9535 26.1615C14.1636 25.81 13.4162 25.4578 12.8655 25.1929C12.6959 25.1114 12.5453 25.0383 12.4181 24.9761C12.5861 24.8303 12.7773 24.7069 12.9864 24.6108C14.4932 23.9183 17.1384 22.8111 18.6476 22.8111C20.1568 22.8111 22.8021 23.9183 24.3089 24.6108ZM19.6671 36.9641V29.3728C19.9908 29.2852 20.349 29.1668 20.7188 29.0324C21.4877 28.7531 22.3593 28.3854 23.1706 28.0244C23.9847 27.6622 24.7512 27.3008 25.3135 27.0305C25.4431 26.9681 25.5621 26.9105 25.6684 26.8587C25.7319 27.6133 25.7841 28.6334 25.7841 29.9475C25.7841 31.5503 25.7065 32.7156 25.6254 33.4954C25.5429 34.2899 25.0346 34.9507 24.3089 35.2842C23.1023 35.8387 21.1658 36.6591 19.6671 36.9641ZM12.9864 35.2842C12.2607 34.9507 11.7524 34.2899 11.6698 33.4954C11.5888 32.7156 11.5112 31.5503 11.5112 29.9475C11.5112 28.6334 11.5634 27.6133 11.6268 26.8587C11.7332 26.9105 11.8521 26.9681 11.9818 27.0305C12.544 27.3008 13.3106 27.6622 14.1247 28.0244C14.936 28.3854 15.8076 28.7531 16.5765 29.0324C16.9463 29.1668 17.3045 29.2852 17.6282 29.3728V36.9641C16.1295 36.6591 14.193 35.8387 12.9864 35.2842ZM41.189 24.9761C41.021 24.8303 40.8299 24.7069 40.6207 24.6108C39.1139 23.9183 36.4686 22.8111 34.9594 22.8111C33.4503 22.8111 30.805 23.9183 29.2982 24.6108C29.089 24.7069 28.8979 24.8303 28.7298 24.9761C28.8571 25.0383 29.0077 25.1114 29.1773 25.1929C29.728 25.4578 30.4754 25.81 31.2653 26.1615C32.058 26.5142 32.8804 26.8601 33.5846 27.116C33.9372 27.2441 34.247 27.3448 34.501 27.4123C34.7727 27.4846 34.9155 27.5007 34.9594 27.5007C35.0034 27.5007 35.1462 27.4846 35.4179 27.4123C35.6719 27.3448 35.9817 27.2441 36.3343 27.116C37.0385 26.8601 37.8609 26.5142 38.6536 26.1615C39.4435 25.81 40.1908 25.4578 40.7416 25.1929C40.9111 25.1114 41.0618 25.0383 41.189 24.9761ZM35.9789 29.3728V36.9641C37.4776 36.6591 39.4141 35.8387 40.6207 35.2842C41.3464 34.9507 41.8547 34.2899 41.9372 33.4954C42.0183 32.7156 42.0959 31.5503 42.0959 29.9475C42.0959 28.6334 42.0437 27.6133 41.9802 26.8587C41.8739 26.9105 41.7549 26.9681 41.6253 27.0305C41.063 27.3008 40.2965 27.6622 39.4824 28.0244C38.6711 28.3854 37.7995 28.7531 37.0306 29.0324C36.6608 29.1668 36.3026 29.2852 35.9789 29.3728ZM27.9817 33.4954C28.0642 34.2899 28.5725 34.9507 29.2982 35.2842C30.5048 35.8387 32.4412 36.6591 33.94 36.9641V29.3728C33.6163 29.2852 33.2581 29.1668 32.8883 29.0324C32.1194 28.7531 31.2478 28.3854 30.4365 28.0244C29.6224 27.6622 28.8558 27.3008 28.2936 27.0305C28.1639 26.9681 28.0449 26.9105 27.9386 26.8587C27.8752 27.6133 27.823 28.6334 27.823 29.9475C27.823 31.5503 27.9006 32.7156 27.9817 33.4954Z" fill="#784AE9"/>
<path d="M20.8668 41.623C21.032 41.6491 21.182 41.7165 21.3168 41.8252C21.4559 41.9339 21.5646 42.0686 21.6428 42.2295C21.7254 42.3903 21.7667 42.5621 21.7667 42.7447C21.7667 42.9751 21.708 43.1837 21.5907 43.3707C21.4733 43.5533 21.3016 43.6989 21.0755 43.8076C20.8538 43.9119 20.5908 43.9641 20.2865 43.9641H18.591V39.4189H20.2213C20.5299 39.4189 20.7929 39.4711 21.0103 39.5755C21.2277 39.6754 21.3907 39.8124 21.4994 39.9863C21.6081 40.1602 21.6624 40.3558 21.6624 40.5732C21.6624 40.8427 21.5885 41.0666 21.4407 41.2448C21.2972 41.4187 21.1059 41.5448 20.8668 41.623ZM19.1844 41.3818H20.1821C20.4604 41.3818 20.6755 41.3166 20.8277 41.1861C20.9799 41.0557 21.0559 40.8753 21.0559 40.6449C21.0559 40.4145 20.9799 40.2341 20.8277 40.1037C20.6755 39.9732 20.456 39.908 20.1691 39.908H19.1844V41.3818ZM20.2343 43.475C20.5299 43.475 20.7603 43.4054 20.9255 43.2663C21.0907 43.1272 21.1733 42.9338 21.1733 42.686C21.1733 42.4338 21.0864 42.236 20.9125 42.0926C20.7386 41.9447 20.506 41.8708 20.2147 41.8708H19.1844V43.475H20.2343ZM23.1706 39.4189V42.2947C23.1706 42.699 23.2684 42.999 23.464 43.1946C23.664 43.3902 23.9401 43.488 24.2922 43.488C24.64 43.488 24.9117 43.3902 25.1073 43.1946C25.3073 42.999 25.4073 42.699 25.4073 42.2947V39.4189H26.0007V42.2882C26.0007 42.6664 25.9246 42.9859 25.7725 43.2468C25.6203 43.5033 25.4138 43.6945 25.153 43.8206C24.8965 43.9467 24.6074 44.0097 24.2857 44.0097C23.964 44.0097 23.6727 43.9467 23.4119 43.8206C23.1554 43.6945 22.951 43.5033 22.7989 43.2468C22.6511 42.9859 22.5772 42.6664 22.5772 42.2882V39.4189H23.1706ZM27.584 39.4189V43.9641H26.9906V39.4189H27.584ZM29.1888 43.4815H30.7799V43.9641H28.5954V39.4189H29.1888V43.4815ZM32.8252 39.4189C33.3208 39.4189 33.749 39.5124 34.1098 39.6994C34.475 39.8819 34.7532 40.145 34.9445 40.4884C35.1401 40.8318 35.2379 41.2361 35.2379 41.7013C35.2379 42.1665 35.1401 42.5708 34.9445 42.9142C34.7532 43.2533 34.475 43.5141 34.1098 43.6967C33.749 43.875 33.3208 43.9641 32.8252 43.9641H31.4101V39.4189H32.8252ZM32.8252 43.475C33.412 43.475 33.8598 43.3207 34.1685 43.012C34.4771 42.699 34.6315 42.2621 34.6315 41.7013C34.6315 41.1361 34.475 40.6949 34.162 40.3775C33.8533 40.0602 33.4077 39.9015 32.8252 39.9015H32.0035V43.475H32.8252Z" fill="#784AE9"/>
</svg>
