<svg width="54" height="54" viewBox="0 0 54 54" fill="none" xmlns="http://www.w3.org/2000/svg">
<path d="M21.7324 21.1295L25.1397 17.6826L22.921 15.4243L21.1778 17.1676L18.9591 14.9489L20.6627 13.2056L18.8799 11.4228L15.433 14.8696L21.7324 21.1295ZM34.7275 34.1641L38.1744 30.7173L36.3915 28.9344L34.6483 30.638L32.4296 28.4194L34.1332 26.6761L31.8749 24.4575L28.4677 27.8647L34.7275 34.1641ZM19.2761 37.0563H12.5408V30.3211L19.4742 23.3878L10.9561 14.8696L18.8799 6.94583L27.4376 15.5036L33.4201 9.48145C33.737 9.1645 34.0936 8.92679 34.4898 8.76831C34.886 8.60983 35.2954 8.53059 35.718 8.53059C36.1406 8.53059 36.55 8.60983 36.9462 8.76831C37.3424 8.92679 37.6989 9.1645 38.0159 9.48145L40.1157 11.6209C40.4327 11.9378 40.6704 12.2944 40.8288 12.6906C40.9873 13.0868 41.0666 13.4962 41.0666 13.9188C41.0666 14.3414 40.9873 14.7442 40.8288 15.1272C40.6704 15.5102 40.4327 15.8601 40.1157 16.1771L34.1332 22.1992L42.6513 30.7173L34.7275 38.6411L26.2094 30.123L19.2761 37.0563ZM15.7103 33.8868H17.929L33.4597 18.3957L31.2014 16.1375L15.7103 31.6681V33.8868Z" fill="#C384FF"/>
<path d="M17.1977 40.096C17.6933 40.096 18.1215 40.1894 18.4823 40.3764C18.8475 40.559 19.1257 40.822 19.317 41.1654C19.5127 41.5089 19.6105 41.9132 19.6105 42.3783C19.6105 42.8435 19.5127 43.2478 19.317 43.5912C19.1257 43.9303 18.8475 44.1912 18.4823 44.3738C18.1215 44.552 17.6933 44.6411 17.1977 44.6411H15.7826V40.096H17.1977ZM17.1977 44.152C17.7846 44.152 18.2324 43.9977 18.541 43.689C18.8497 43.376 19.004 42.9391 19.004 42.3783C19.004 41.8132 18.8475 41.3719 18.5345 41.0546C18.2258 40.7372 17.7802 40.5785 17.1977 40.5785H16.3761V44.152H17.1977ZM20.9866 40.5785V42.0979H22.6429V42.587H20.9866V44.152H22.8386V44.6411H20.3932V40.0895H22.8386V40.5785H20.9866ZM25.1776 44.6868C24.8776 44.6868 24.6081 44.6346 24.369 44.5303C24.1343 44.4216 23.9495 44.2738 23.8147 44.0868C23.68 43.8955 23.6104 43.676 23.6061 43.4282H24.2386C24.2603 43.6412 24.3473 43.8216 24.4994 43.9695C24.6559 44.1129 24.882 44.1846 25.1776 44.1846C25.4602 44.1846 25.6819 44.1151 25.8428 43.976C26.008 43.8325 26.0906 43.6499 26.0906 43.4282C26.0906 43.2543 26.0427 43.113 25.9471 43.0043C25.8515 42.8957 25.7319 42.8131 25.5884 42.7565C25.445 42.7 25.2515 42.6392 25.0081 42.574C24.7081 42.4957 24.4668 42.4175 24.2842 42.3392C24.106 42.261 23.9517 42.1392 23.8212 41.974C23.6952 41.8045 23.6321 41.5784 23.6321 41.2958C23.6321 41.048 23.6952 40.8285 23.8212 40.6372C23.9473 40.4459 24.1234 40.2981 24.3494 40.1938C24.5799 40.0895 24.8429 40.0373 25.1385 40.0373C25.5645 40.0373 25.9123 40.1438 26.1818 40.3568C26.4557 40.5698 26.6101 40.8524 26.6448 41.2046H25.9927C25.971 41.0307 25.8797 40.8785 25.7189 40.7481C25.558 40.6133 25.345 40.5459 25.0798 40.5459C24.832 40.5459 24.6299 40.6111 24.4733 40.7416C24.3168 40.8676 24.2386 41.0459 24.2386 41.2763C24.2386 41.4415 24.2842 41.5762 24.3755 41.6806C24.4712 41.7849 24.5864 41.8653 24.7211 41.9219C24.8603 41.974 25.0537 42.0349 25.3015 42.1044C25.6015 42.187 25.8428 42.2696 26.0253 42.3522C26.2079 42.4305 26.3644 42.5544 26.4949 42.7239C26.6253 42.8891 26.6905 43.1152 26.6905 43.4021C26.6905 43.6238 26.6318 43.8325 26.5144 44.0281C26.397 44.2238 26.2231 44.3824 25.9927 44.5042C25.7623 44.6259 25.4906 44.6868 25.1776 44.6868ZM28.1571 40.096V44.6411H27.5637V40.096H28.1571ZM32.6116 41.4132C32.4855 41.148 32.3029 40.9437 32.0638 40.8002C31.8247 40.6524 31.5465 40.5785 31.2291 40.5785C30.9118 40.5785 30.6249 40.6524 30.3684 40.8002C30.1162 40.9437 29.9163 41.1524 29.7684 41.4263C29.625 41.6958 29.5533 42.0088 29.5533 42.3653C29.5533 42.7218 29.625 43.0348 29.7684 43.3043C29.9163 43.5738 30.1162 43.7825 30.3684 43.9303C30.6249 44.0738 30.9118 44.1455 31.2291 44.1455C31.6726 44.1455 32.0378 44.0129 32.3247 43.7477C32.6116 43.4826 32.779 43.1239 32.8268 42.6718H31.014V42.1892H33.4593V42.6457C33.4245 43.0196 33.3072 43.363 33.1072 43.676C32.9072 43.9847 32.6442 44.2303 32.3182 44.4129C31.9921 44.5911 31.6291 44.6802 31.2291 44.6802C30.8075 44.6802 30.4227 44.5824 30.0749 44.3868C29.7271 44.1868 29.4511 43.9108 29.2468 43.5586C29.0468 43.2065 28.9468 42.8087 28.9468 42.3653C28.9468 41.9219 29.0468 41.5241 29.2468 41.1719C29.4511 40.8155 29.7271 40.5394 30.0749 40.3438C30.4227 40.1438 30.8075 40.0438 31.2291 40.0438C31.7117 40.0438 32.1377 40.1634 32.5073 40.4025C32.8811 40.6416 33.1528 40.9785 33.3224 41.4132H32.6116ZM37.8174 44.6411H37.224L34.8373 41.022V44.6411H34.2439V40.0895H34.8373L37.224 43.7021V40.0895H37.8174V44.6411Z" fill="#C384FF"/>
</svg>
