<svg width="55" height="55" viewBox="0 0 55 55" fill="none" xmlns="http://www.w3.org/2000/svg">
<circle cx="27.2168" cy="27.2656" r="26.7935" fill="#D6D6D6"/>
<path fill-rule="evenodd" clip-rule="evenodd" d="M38.0884 14.5554C38.3679 14.5727 38.6236 14.5612 38.871 14.6086C40.0444 14.8332 40.8052 15.899 40.806 17.3157C40.8086 21.9287 40.807 26.5417 40.807 31.1548C40.807 34.1935 40.8076 37.2321 40.8068 40.2708C40.8064 42.0119 39.8598 43.1153 38.3667 43.1154C31.8647 43.1158 25.3627 43.0939 18.8608 43.1315C17.3272 43.1404 16.2374 41.8413 16.3424 40.1964C16.3466 40.1309 16.3429 40.0647 16.3429 39.944C16.1896 39.944 16.0437 39.9461 15.8977 39.9437C14.6227 39.9227 13.6288 38.7846 13.6277 37.3012C13.6221 29.5503 13.6222 21.7996 13.6276 14.0488C13.6287 12.5632 14.6205 11.4076 15.895 11.4063C22.5385 11.4001 29.182 11.3998 35.8256 11.4065C37.0977 11.4079 38.0699 12.5669 38.088 14.0574C38.0901 14.2198 38.0884 14.3821 38.0884 14.5554ZM37.1827 16.7117C29.6126 16.7117 22.0793 16.7117 14.5308 16.7117C14.5308 16.7999 14.5308 16.8648 14.5308 16.9296C14.5308 23.6999 14.5297 30.4703 14.5321 37.2406C14.5324 38.2175 15.1183 38.886 15.9694 38.8862C22.5557 38.888 29.142 38.888 35.7283 38.8865C36.611 38.8862 37.1809 38.2214 37.1819 37.1924C37.1841 34.7045 37.1828 32.2166 37.1818 29.7286C37.1818 29.6482 37.1697 29.5677 37.1632 29.4873C37.1403 29.4712 37.1175 29.4552 37.0947 29.4392C37.033 29.5359 36.9804 29.6432 36.9081 29.7277C35.5287 31.3411 34.1499 32.9552 32.7619 34.5584C32.6131 34.7302 32.4218 34.8763 32.2271 34.9656C30.965 35.5446 29.6957 36.1019 28.4309 36.673C28.2067 36.7742 27.9943 36.8372 27.8018 36.6139C27.6075 36.3884 27.6699 36.1404 27.7561 35.8806C28.2459 34.405 28.7242 32.924 29.221 31.4517C29.2976 31.2247 29.4227 31.0014 29.5703 30.8284C31.9333 28.0585 34.2949 25.2868 36.6813 22.5443C37.055 22.1149 37.2108 21.697 37.1949 21.088C37.1571 19.6377 37.1827 18.1851 37.1827 16.7117ZM39.9009 26.2284C39.3185 26.9114 38.8043 27.5253 38.2779 28.1248C38.1384 28.2836 38.0839 28.4428 38.0844 28.6708C38.091 31.4782 38.0892 34.2858 38.0876 37.0934C38.0874 37.2909 38.0876 37.4917 38.0597 37.6855C37.8605 39.0675 36.949 39.9433 35.7101 39.9437C29.6798 39.945 23.6493 39.9443 17.619 39.9443C17.5004 39.9443 17.3818 39.9443 17.2694 39.9443C17.0994 41.3598 17.8838 42.0791 18.89 42.0743C25.3733 42.0433 31.8567 42.0586 38.34 42.0584C39.3751 42.0583 39.9008 41.44 39.9009 40.2233C39.901 35.7092 39.9009 31.195 39.9009 26.6809C39.9009 26.5635 39.9009 26.4463 39.9009 26.2284ZM14.5339 15.607C22.1002 15.607 29.6348 15.607 37.1827 15.607C37.1827 15.1431 37.1829 14.7036 37.1826 14.2639C37.1819 13.0798 36.6468 12.4601 35.6238 12.4601C29.1116 12.46 22.5992 12.4601 16.087 12.4601C15.9926 12.4601 15.898 12.4571 15.8039 12.464C15.1309 12.5134 14.5686 13.1517 14.538 13.9362C14.5167 14.4845 14.5339 15.0349 14.5339 15.607ZM30.9826 32.0707C32.7919 29.9593 34.5973 27.8526 36.3603 25.7955C36.1881 25.5719 35.9947 25.3209 35.8381 25.1178C34.0314 27.2253 32.2273 29.3301 30.4445 31.4097C30.6144 31.6185 30.8073 31.8554 30.9826 32.0707ZM37.1425 26.6236C35.3394 28.7271 33.5298 30.8382 31.751 32.9133C31.91 33.116 32.0991 33.3569 32.2499 33.5492C34.0575 31.4402 35.8619 29.3352 37.6701 27.2257C37.4949 27.0255 37.2937 26.7961 37.1425 26.6236ZM39.5706 25.0531C38.951 24.3291 38.3217 23.5937 37.7442 22.9188C37.3522 23.3754 36.9361 23.8601 36.5499 24.3101C37.146 25.0052 37.7708 25.7337 38.3778 26.4415C38.7719 25.9827 39.1838 25.5033 39.5706 25.0531ZM38.1086 15.6474C38.1086 16.7114 38.1086 17.748 38.1086 18.7771C38.7157 18.7771 39.3028 18.7771 39.8986 18.7771C39.8986 18.2141 39.9087 17.6762 39.8954 17.1391C39.8846 16.7027 39.7235 16.3355 39.4467 16.0399C39.0665 15.6339 38.6074 15.5917 38.1086 15.6474ZM39.8901 19.8843C39.2774 19.8843 38.6894 19.8843 38.0887 19.8843C38.0887 20.4253 38.0776 20.9423 38.0958 21.4579C38.1009 21.6032 38.1627 21.7772 38.2485 21.8823C38.6781 22.4079 39.124 22.9153 39.5648 23.4284C39.6602 23.5395 39.7577 23.6483 39.8901 23.7987C39.8901 22.451 39.8901 21.1787 39.8901 19.8843ZM29.8859 32.3767C29.788 32.6699 29.6815 32.9513 29.604 33.2432C29.5805 33.3316 29.6077 33.4799 29.661 33.5476C29.9092 33.8621 30.1723 34.161 30.4366 34.4575C30.4824 34.5091 30.5724 34.5644 30.6212 34.5454C30.8986 34.4371 31.1698 34.3069 31.4365 34.1871C30.9113 33.5738 30.4077 32.9858 29.8859 32.3767ZM29.1881 34.4906C29.0953 34.7774 29.0222 35.0038 28.9193 35.3221C29.1938 35.1939 29.3907 35.1017 29.6152 34.9969C29.463 34.8163 29.3454 34.677 29.1881 34.4906Z" fill="#CC1C1C"/>
<path fill-rule="evenodd" clip-rule="evenodd" d="M17.2443 14.5602C17.2443 14.1986 17.2443 13.8734 17.2443 13.5344C16.9455 13.5344 16.6601 13.5344 16.3701 13.5344C16.3701 13.8863 16.3701 14.2192 16.3701 14.5602C16.6672 14.5602 16.9459 14.5602 17.2443 14.5602ZM19.0583 13.5404C18.7468 13.5404 18.4614 13.5404 18.1774 13.5404C18.1774 13.8904 18.1774 14.2156 18.1774 14.5541C18.4764 14.5541 18.7616 14.5541 19.0583 14.5541C19.0583 14.2105 19.0583 13.8853 19.0583 13.5404ZM20.8711 13.5315C20.5611 13.5315 20.2825 13.5315 19.9918 13.5315C19.9918 13.8802 19.9918 14.2131 19.9918 14.5515C20.2933 14.5515 20.5787 14.5515 20.8711 14.5515C20.8711 14.2047 20.8711 13.8797 20.8711 13.5315Z" fill="white"/>
<path fill-rule="evenodd" clip-rule="evenodd" d="M20.4534 18.8017C21.6048 18.8017 22.7562 18.8009 23.9076 18.8021C24.3539 18.8026 24.5058 18.9764 24.5062 19.4906C24.5074 21.1422 24.5073 22.7938 24.5062 24.4453C24.5059 24.9657 24.356 25.1434 23.9155 25.1436C21.5938 25.1447 19.2721 25.1446 16.9505 25.1437C16.5039 25.1436 16.3528 24.9695 16.3524 24.4546C16.3512 22.8029 16.3513 21.1514 16.3524 19.4998C16.3527 18.9785 16.5011 18.8028 16.9425 18.8022C18.1129 18.8008 19.2831 18.8017 20.4534 18.8017ZM17.2721 24.0655C19.388 24.0655 21.4853 24.0655 23.5792 24.0655C23.5792 22.6535 23.5792 21.2633 23.5792 19.8746C21.4673 19.8746 19.3768 19.8746 17.2721 19.8746C17.2721 21.2727 17.2721 22.6551 17.2721 24.0655Z" fill="#CC1C1C"/>
<path fill-rule="evenodd" clip-rule="evenodd" d="M29.9264 27.2824C29.9264 27.6307 29.9264 27.9566 29.9264 28.2994C26.0114 28.2994 22.109 28.2994 18.1836 28.2994C18.1836 27.9741 18.1836 27.64 18.1836 27.2824C22.0849 27.2824 25.9939 27.2824 29.9264 27.2824Z" fill="#CC1C1C"/>
<path fill-rule="evenodd" clip-rule="evenodd" d="M28.1129 29.3946C28.1129 29.746 28.1129 30.0719 28.1129 30.4135C24.197 30.4135 20.2948 30.4135 16.3701 30.4135C16.3701 30.0848 16.3701 29.7509 16.3701 29.3946C20.2742 29.3946 24.1831 29.3946 28.1129 29.3946Z" fill="#CC1C1C"/>
<path fill-rule="evenodd" clip-rule="evenodd" d="M26.3109 31.5101C26.3109 31.857 26.3109 32.1829 26.3109 32.5261C22.9934 32.5261 19.6887 32.5261 16.3701 32.5261C16.3701 32.1853 16.3701 31.8595 16.3701 31.5101C19.6764 31.5101 22.9814 31.5101 26.3109 31.5101Z" fill="#CC1C1C"/>
<path fill-rule="evenodd" clip-rule="evenodd" d="M26.3009 33.6233C26.3009 33.9737 26.3009 34.2996 26.3009 34.6416C22.9892 34.6416 19.691 34.6416 16.3701 34.6416C16.3701 34.314 16.3701 33.9801 16.3701 33.6233C19.6691 33.6233 22.9741 33.6233 26.3009 33.6233Z" fill="#CC1C1C"/>
<path fill-rule="evenodd" clip-rule="evenodd" d="M16.3701 35.7311C19.6923 35.7311 22.9906 35.7311 26.3031 35.7311C26.3031 36.072 26.3031 36.3979 26.3031 36.7485C22.9995 36.7485 19.6945 36.7485 16.3701 36.7485C16.3701 36.4204 16.3701 36.087 16.3701 35.7311Z" fill="#CC1C1C"/>
<path fill-rule="evenodd" clip-rule="evenodd" d="M34.4619 21.468C34.4619 21.816 34.4619 22.1418 34.4619 22.4847C31.755 22.4847 29.0609 22.4847 26.3433 22.4847C26.3433 22.1596 26.3433 21.8257 26.3433 21.468C29.0363 21.468 31.7372 21.468 34.4619 21.468Z" fill="#CC1C1C"/>
<path fill-rule="evenodd" clip-rule="evenodd" d="M35.3657 19.3536C35.3657 19.7 35.3657 20.0258 35.3657 20.3692C32.9545 20.3692 30.5557 20.3692 28.1431 20.3692C28.1431 20.0292 28.1431 19.7033 28.1431 19.3536C30.5426 19.3536 32.9416 19.3536 35.3657 19.3536Z" fill="#CC1C1C"/>
<path fill-rule="evenodd" clip-rule="evenodd" d="M32.6397 23.577C32.6397 23.9186 32.6397 24.2444 32.6397 24.5935C30.5407 24.5935 28.4438 24.5935 26.3286 24.5935C26.3286 24.2615 26.3286 23.9282 26.3286 23.577C28.426 23.577 30.5161 23.577 32.6397 23.577Z" fill="#CC1C1C"/>
<path fill-rule="evenodd" clip-rule="evenodd" d="M26.3286 19.3448C26.6288 19.3448 26.9136 19.3448 27.2187 19.3448C27.2187 19.6878 27.2187 20.028 27.2187 20.3893C26.927 20.3893 26.6355 20.3893 26.3286 20.3893C26.3286 20.0483 26.3286 19.7159 26.3286 19.3448Z" fill="#CC1C1C"/>
<path fill-rule="evenodd" clip-rule="evenodd" d="M16.3701 27.2657C16.674 27.2657 16.9519 27.2657 17.2535 27.2657C17.2535 27.6081 17.2535 27.9486 17.2535 28.3142C16.9723 28.3142 16.6806 28.3142 16.3701 28.3142C16.3701 27.9768 16.3701 27.6367 16.3701 27.2657Z" fill="#CC1C1C"/>
<path fill-rule="evenodd" clip-rule="evenodd" d="M17.2632 14.5828C16.9584 14.5828 16.6736 14.5828 16.3701 14.5828C16.3701 14.2345 16.3701 13.8945 16.3701 13.5349C16.6664 13.5349 16.9579 13.5349 17.2632 13.5349C17.2632 13.8812 17.2632 14.2134 17.2632 14.5828Z" fill="#CC1C1C"/>
<path fill-rule="evenodd" clip-rule="evenodd" d="M19.0695 13.5417C19.0695 13.8941 19.0695 14.2262 19.0695 14.5773C18.7664 14.5773 18.475 14.5773 18.1694 14.5773C18.1694 14.2315 18.1694 13.8992 18.1694 13.5417C18.4596 13.5417 18.7512 13.5417 19.0695 13.5417Z" fill="#CC1C1C"/>
<path fill-rule="evenodd" clip-rule="evenodd" d="M20.8817 13.5315C20.8817 13.8872 20.8817 14.2193 20.8817 14.5735C20.583 14.5735 20.2915 14.5735 19.9834 14.5735C19.9834 14.2278 19.9834 13.8878 19.9834 13.5315C20.2803 13.5315 20.5651 13.5315 20.8817 13.5315Z" fill="#CC1C1C"/>
</svg>
