<svg width="55" height="55" viewBox="0 0 55 55" fill="none" xmlns="http://www.w3.org/2000/svg">
<path fill-rule="evenodd" clip-rule="evenodd" d="M39.7785 6.63304C38.6116 6.56527 36.6308 6.62162 33.5589 7.19708C31.6385 7.55685 30.1677 7.89406 29.0652 8.18133C28.2321 8.39842 27.6769 8.96834 27.5331 9.66658C27.3895 10.3639 27.6728 11.1088 28.3458 11.643C29.1045 12.2454 30.1038 13.0089 31.4119 13.9631C30.4946 15.8711 29.3746 17.7912 28.1796 19.4778C28.1096 19.423 28.0286 19.3598 27.9375 19.2889C27.5897 19.0183 27.095 18.6358 26.5069 18.1877C25.3312 17.2918 23.78 16.1321 22.2819 15.0806C21.2565 14.3608 19.8585 14.5022 19.0082 15.4289C14.4638 20.3818 11.856 25.1875 10.9298 27.0591C10.6372 27.6502 10.5289 28.4313 11.0327 29.0444C11.2806 29.346 11.6431 29.6959 12.172 30.0653C12.5567 30.334 12.9015 30.5235 13.2028 30.6565C14.1519 31.0752 15.0338 30.5035 15.5361 29.8173C16.8663 28.0005 19.7277 24.162 21.5178 22.2578C22.9752 23.3095 24.9368 24.9831 26.4578 26.3234C27.5276 23.5163 30.2445 21.5221 33.4272 21.5221C34.1806 21.5221 34.908 21.6338 35.5936 21.8417L35.9666 21.4165C36.7959 20.471 37.5898 19.5658 38.3252 18.7625C39.5224 19.5518 40.4813 20.1558 41.2418 20.6166C41.9751 21.0609 42.7706 21.0682 43.3742 20.693C43.9787 20.3171 44.3215 19.6008 44.2383 18.7456C44.1283 17.6139 43.9379 16.1194 43.6131 14.1949C43.0947 11.1229 42.4648 9.2496 41.9984 8.18005C41.6025 7.27192 40.7673 6.69046 39.7785 6.63304ZM38.6466 28.9779C38.6466 30.7597 37.7537 32.333 36.391 33.2746C38.4015 34.0781 39.9846 35.6706 40.7216 37.6498C41.1151 38.7066 40.5308 39.9183 39.4064 40.0048C39.3809 40.0067 39.3554 40.0085 39.3298 40.0099C37.8922 40.0929 35.9388 40.1617 33.4126 40.1617C30.8864 40.1617 28.933 40.0929 27.4954 40.0099C27.4701 40.0085 27.4449 40.0068 27.4198 40.0049C26.2953 39.9186 25.7107 38.7069 26.1042 37.6499C26.8434 35.6645 28.434 34.0683 30.4534 33.2673C29.0966 32.3248 28.2084 30.7551 28.2084 28.9779C28.2084 26.0955 30.5451 23.7588 33.4275 23.7588C36.3099 23.7588 38.6466 26.0955 38.6466 28.9779Z" fill="#DA4652"/>
<path d="M21.1465 44.1838C21.0205 43.9186 20.8379 43.7143 20.5988 43.5708C20.3597 43.423 20.0814 43.3491 19.7641 43.3491C19.4467 43.3491 19.1598 43.423 18.9033 43.5708C18.6512 43.7143 18.4512 43.923 18.3034 44.1968C18.1599 44.4664 18.0882 44.7794 18.0882 45.1359C18.0882 45.4923 18.1599 45.8053 18.3034 46.0749C18.4512 46.3444 18.6512 46.5531 18.9033 46.7009C19.1598 46.8444 19.4467 46.9161 19.7641 46.9161C20.2075 46.9161 20.5727 46.7835 20.8596 46.5183C21.1465 46.2531 21.3139 45.8945 21.3617 45.4423H19.5489V44.9598H21.9943V45.4163C21.9595 45.7901 21.8421 46.1336 21.6421 46.4466C21.4421 46.7552 21.1791 47.0009 20.8531 47.1834C20.527 47.3617 20.164 47.4508 19.7641 47.4508C19.3424 47.4508 18.9576 47.353 18.6099 47.1574C18.2621 46.9574 17.986 46.6813 17.7817 46.3292C17.5817 45.9771 17.4817 45.5793 17.4817 45.1359C17.4817 44.6924 17.5817 44.2946 17.7817 43.9425C17.986 43.586 18.2621 43.31 18.6099 43.1143C18.9576 42.9144 19.3424 42.8144 19.7641 42.8144C20.2466 42.8144 20.6727 42.9339 21.0422 43.173C21.4161 43.4121 21.6878 43.7491 21.8573 44.1838H21.1465ZM25.1721 47.4117L24.0896 45.5532H23.3723V47.4117H22.7789V42.8666H24.2461C24.5895 42.8666 24.8786 42.9252 25.1134 43.0426C25.3525 43.16 25.5307 43.3187 25.6481 43.5186C25.7655 43.7186 25.8242 43.9469 25.8242 44.2034C25.8242 44.5164 25.7329 44.7924 25.5503 45.0315C25.372 45.2706 25.1025 45.4293 24.7417 45.5076L25.8829 47.4117H25.1721ZM23.3723 45.0772H24.2461C24.5678 45.0772 24.8091 44.9989 24.9699 44.8424C25.1308 44.6816 25.2112 44.4685 25.2112 44.2034C25.2112 43.9338 25.1308 43.7251 24.9699 43.5773C24.8134 43.4295 24.5721 43.3556 24.2461 43.3556H23.3723V45.0772ZM28.8069 47.4573C28.3852 47.4573 28.0004 47.3595 27.6526 47.1639C27.3049 46.9639 27.0288 46.6879 26.8245 46.3357C26.6245 45.9792 26.5245 45.5793 26.5245 45.1359C26.5245 44.6924 26.6245 44.2946 26.8245 43.9425C27.0288 43.586 27.3049 43.31 27.6526 43.1143C28.0004 42.9144 28.3852 42.8144 28.8069 42.8144C29.2329 42.8144 29.6198 42.9144 29.9676 43.1143C30.3154 43.31 30.5893 43.5839 30.7892 43.936C30.9892 44.2881 31.0892 44.6881 31.0892 45.1359C31.0892 45.5836 30.9892 45.9836 30.7892 46.3357C30.5893 46.6879 30.3154 46.9639 29.9676 47.1639C29.6198 47.3595 29.2329 47.4573 28.8069 47.4573ZM28.8069 46.9422C29.1242 46.9422 29.409 46.8683 29.6611 46.7205C29.9176 46.5726 30.1176 46.3618 30.261 46.0879C30.4089 45.814 30.4828 45.4967 30.4828 45.1359C30.4828 44.7707 30.4089 44.4533 30.261 44.1838C30.1176 43.9099 29.9198 43.6991 29.6676 43.5513C29.4155 43.4034 29.1286 43.3295 28.8069 43.3295C28.4852 43.3295 28.1982 43.4034 27.9461 43.5513C27.6939 43.6991 27.494 43.9099 27.3462 44.1838C27.2027 44.4533 27.131 44.7707 27.131 45.1359C27.131 45.4967 27.2027 45.814 27.3462 46.0879C27.494 46.3618 27.6939 46.5726 27.9461 46.7205C28.2026 46.8683 28.4895 46.9422 28.8069 46.9422ZM37.585 42.8666L36.2677 47.4117H35.6026L34.5462 43.7534L33.4507 47.4117L32.7921 47.4182L31.5205 42.8666H32.153L33.1442 46.7205L34.2397 42.8666H34.9049L35.9482 46.7074L36.9459 42.8666H37.585Z" fill="#DA4652"/>
</svg>
